<svg xmlns="http://www.w3.org/2000/svg" xmlns:xlink="http://www.w3.org/1999/xlink" width="250" zoomAndPan="magnify" viewBox="0 0 187.5 37.5" height="50" preserveAspectRatio="xMidYMid meet" version="1.0"><defs><g/><clipPath id="d10a5f36ac"><path d="M 14 0 L 52 0 L 52 37.007812 L 14 37.007812 Z M 14 0 " clip-rule="nonzero"/></clipPath><clipPath id="fa9e18bc96"><path d="M 1.960938 12 L 64.296875 12 L 64.296875 23 L 1.960938 23 Z M 1.960938 12 " clip-rule="nonzero"/></clipPath></defs><g fill="#9ea8c6" fill-opacity="1"><g transform="translate(60.888556, 32.534459)"><g><path d="M 3.496094 -27.769531 C 3.253906 -28.253906 2.652344 -28.777344 2.210938 -28.777344 C 1.445312 -28.777344 0.804688 -28.253906 0.804688 -27.449219 C 0.804688 -27.289062 0.84375 -27.007812 0.882812 -26.886719 L 8.882812 -1.566406 C 9.203125 -0.441406 9.6875 0.363281 10.730469 0.363281 C 11.734375 0.363281 12.257812 -0.480469 12.621094 -1.566406 L 20.617188 -26.886719 C 20.617188 -26.925781 20.65625 -27.25 20.65625 -27.449219 C 20.65625 -28.253906 20.054688 -28.777344 19.25 -28.777344 C 18.769531 -28.777344 18.125 -28.375 17.964844 -27.769531 L 10.730469 -3.980469 Z M 3.496094 -27.769531 "/></g></g></g><g fill="#9ea8c6" fill-opacity="1"><g transform="translate(82.142909, 32.534459)"><g><path d="M 11.171875 0.363281 C 17.242188 0.363281 20.296875 -4.140625 20.296875 -9.804688 L 20.296875 -18.609375 C 20.296875 -24.152344 17.683594 -28.777344 11.171875 -28.777344 C 4.582031 -28.777344 2.007812 -24.152344 2.007812 -18.609375 L 2.007812 -9.804688 C 2.007812 -4.140625 5.105469 0.363281 11.171875 0.363281 Z M 11.171875 -26.203125 C 15.875 -26.203125 17.601562 -23.148438 17.601562 -18.609375 L 17.601562 -9.804688 C 17.601562 -5.34375 15.59375 -2.210938 11.171875 -2.210938 C 6.75 -2.210938 4.703125 -5.34375 4.703125 -9.804688 L 4.703125 -18.609375 C 4.703125 -23.148438 6.390625 -26.203125 11.171875 -26.203125 Z M 11.171875 -26.203125 "/></g></g></g><g fill="#9ea8c6" fill-opacity="1"><g transform="translate(104.281187, 32.534459)"><g><path d="M 20.535156 -20.457031 C 20.535156 -24.394531 18.445312 -28.375 11.894531 -28.375 L 4.742188 -28.375 C 3.898438 -28.375 3.136719 -27.609375 3.136719 -26.6875 L 3.136719 -1.046875 C 3.136719 -0.242188 3.777344 0.363281 4.460938 0.363281 C 5.226562 0.363281 5.828125 -0.28125 5.828125 -1.046875 L 5.828125 -12.78125 L 11.050781 -12.78125 L 18.40625 -0.28125 C 18.648438 0.0820312 19.050781 0.320312 19.492188 0.320312 C 20.015625 0.320312 20.9375 -0.199219 20.9375 -0.882812 C 20.9375 -1.207031 20.859375 -1.527344 20.777344 -1.726562 L 20.816406 -1.6875 L 14.027344 -12.859375 C 18.003906 -13.664062 20.535156 -16.277344 20.535156 -20.457031 Z M 17.84375 -20.457031 C 17.84375 -17.082031 15.792969 -15.3125 11.976562 -15.3125 L 5.828125 -15.3125 L 5.828125 -25.800781 L 11.734375 -25.800781 C 16.757812 -25.800781 17.84375 -23.027344 17.84375 -20.457031 Z M 17.84375 -20.457031 "/></g></g></g><g fill="#9ea8c6" fill-opacity="1"><g transform="translate(127.383754, 32.534459)"><g><path d="M 8.441406 -0.964844 C 8.441406 -0.242188 9.042969 0.363281 9.804688 0.363281 C 10.53125 0.363281 11.09375 -0.242188 11.09375 -0.964844 L 11.09375 -25.800781 L 17 -25.800781 C 17.765625 -25.800781 18.367188 -26.363281 18.367188 -27.046875 C 18.367188 -27.8125 17.722656 -28.375 17 -28.375 L 2.570312 -28.375 C 1.808594 -28.375 1.207031 -27.648438 1.207031 -27.046875 C 1.207031 -26.363281 1.769531 -25.800781 2.570312 -25.800781 L 8.441406 -25.800781 Z M 8.441406 -0.964844 "/></g></g></g><g fill="#9ea8c6" fill-opacity="1"><g transform="translate(146.789907, 32.534459)"><g><path d="M 17.683594 -1.40625 C 17.683594 -2.050781 17.039062 -2.613281 16.355469 -2.613281 L 5.828125 -2.613281 L 5.828125 -12.980469 L 15.152344 -12.980469 C 15.875 -12.980469 16.4375 -13.542969 16.4375 -14.265625 C 16.4375 -14.992188 15.835938 -15.554688 15.152344 -15.554688 L 5.828125 -15.554688 L 5.828125 -25.800781 L 15.957031 -25.800781 C 16.679688 -25.800781 17.242188 -26.324219 17.242188 -27.007812 C 17.242188 -27.769531 16.679688 -28.375 15.957031 -28.375 L 4.824219 -28.375 C 3.859375 -28.375 3.175781 -27.570312 3.175781 -26.726562 L 3.175781 -1.648438 C 3.175781 -0.402344 4.261719 -0.0390625 5.464844 -0.0390625 L 16.355469 -0.0390625 C 17.082031 -0.0390625 17.683594 -0.601562 17.683594 -1.40625 Z M 17.683594 -1.40625 "/></g></g></g><g fill="#9ea8c6" fill-opacity="1"><g transform="translate(165.834452, 32.534459)"><g><path d="M 10.167969 -12.820312 L 16.960938 -0.644531 C 17.242188 -0.199219 17.683594 0.363281 18.285156 0.363281 C 18.890625 0.363281 19.492188 -0.28125 19.492188 -1.003906 C 19.492188 -1.285156 19.410156 -1.566406 19.332031 -1.726562 L 11.777344 -14.789062 L 18.6875 -26.726562 L 18.648438 -26.6875 C 18.726562 -26.886719 18.808594 -27.167969 18.808594 -27.449219 C 18.808594 -28.171875 18.285156 -28.777344 17.683594 -28.777344 C 16.960938 -28.777344 16.4375 -28.050781 16.117188 -27.488281 L 16.15625 -27.488281 L 10.167969 -16.71875 L 4.140625 -27.488281 C 3.777344 -28.171875 3.214844 -28.777344 2.691406 -28.777344 C 2.007812 -28.777344 1.445312 -28.132812 1.445312 -27.488281 C 1.445312 -27.25 1.527344 -26.925781 1.648438 -26.6875 L 1.609375 -26.726562 L 8.558594 -14.789062 L 1.003906 -1.726562 C 0.882812 -1.566406 0.804688 -1.285156 0.804688 -1.003906 C 0.804688 -0.28125 1.40625 0.363281 2.050781 0.363281 C 2.734375 0.363281 3.09375 -0.199219 3.335938 -0.644531 Z M 10.167969 -12.820312 "/></g></g></g><path fill="#9ea8c6" d="M 51.464844 19.519531 C 51.449219 19.691406 51.566406 19.636719 51.585938 19.664062 C 51.570312 19.371094 51.433594 19.523438 51.464844 19.519531 Z M 51.464844 19.519531 " fill-opacity="1" fill-rule="nonzero"/><path fill="#9ea8c6" d="M 51.105469 16.722656 L 51.160156 16.765625 C 51.105469 16.632812 51.050781 16.503906 50.996094 16.375 C 51.035156 16.488281 51.070312 16.605469 51.105469 16.722656 Z M 51.105469 16.722656 " fill-opacity="1" fill-rule="nonzero"/><path fill="#9ea8c6" d="M 50.636719 14.15625 C 50.605469 14.230469 50.605469 14.320312 50.621094 14.425781 C 50.640625 14.53125 50.679688 14.652344 50.71875 14.777344 C 50.738281 14.839844 50.757812 14.902344 50.777344 14.96875 L 50.808594 15.066406 C 50.820312 15.101562 50.828125 15.136719 50.835938 15.167969 C 50.871094 15.296875 50.898438 15.425781 50.898438 15.542969 L 50.867188 15.625 L 51.058594 15.804688 C 51.027344 15.664062 50.996094 15.515625 50.949219 15.367188 C 50.910156 15.21875 50.867188 15.066406 50.824219 14.917969 C 50.738281 14.628906 50.660156 14.355469 50.636719 14.15625 Z M 50.636719 14.15625 " fill-opacity="1" fill-rule="nonzero"/><path fill="#9ea8c6" d="M 50.636719 12.6875 C 50.617188 12.742188 50.574219 12.675781 50.570312 12.671875 C 50.566406 12.664062 50.601562 12.714844 50.722656 13.011719 C 50.71875 12.980469 50.722656 12.96875 50.722656 12.949219 C 50.710938 12.921875 50.703125 12.890625 50.6875 12.847656 C 50.671875 12.804688 50.65625 12.753906 50.636719 12.6875 Z M 50.636719 12.6875 " fill-opacity="1" fill-rule="nonzero"/><path fill="#9ea8c6" d="M 50.71875 12.945312 C 50.808594 13.214844 50.722656 12.753906 50.71875 12.945312 Z M 50.71875 12.945312 " fill-opacity="1" fill-rule="nonzero"/><path fill="#9ea8c6" d="M 50.230469 11.746094 L 50.332031 11.90625 C 50.367188 11.957031 50.398438 12.011719 50.429688 12.066406 C 50.4375 12.023438 50.414062 11.921875 50.398438 11.84375 C 50.378906 11.769531 50.371094 11.71875 50.410156 11.769531 C 50.230469 11.425781 50.21875 11.515625 50.230469 11.746094 Z M 50.230469 11.746094 " fill-opacity="1" fill-rule="nonzero"/><path fill="#9ea8c6" d="M 49.960938 11.480469 C 49.996094 11.53125 50.03125 11.585938 50.0625 11.644531 C 50.070312 11.601562 50.058594 11.554688 49.960938 11.480469 Z M 49.960938 11.480469 " fill-opacity="1" fill-rule="nonzero"/><path fill="#9ea8c6" d="M 50.273438 11.992188 C 50.207031 11.875 50.132812 11.757812 50.0625 11.640625 C 50.054688 11.703125 49.996094 11.730469 50.152344 11.804688 C 50.089844 11.796875 50.171875 11.847656 50.273438 11.992188 Z M 50.273438 11.992188 " fill-opacity="1" fill-rule="nonzero"/><path fill="#9ea8c6" d="M 50.324219 12.21875 C 50.339844 12.324219 50.367188 12.4375 50.363281 12.488281 C 50.359375 12.539062 50.332031 12.523438 50.234375 12.363281 C 50.367188 12.6875 50.453125 12.8125 50.476562 12.777344 C 50.488281 12.757812 50.480469 12.703125 50.460938 12.605469 C 50.441406 12.511719 50.398438 12.382812 50.324219 12.21875 Z M 50.324219 12.21875 " fill-opacity="1" fill-rule="nonzero"/><path fill="#9ea8c6" d="M 50.40625 14.082031 C 50.410156 14.171875 50.414062 14.261719 50.417969 14.355469 L 50.535156 14.5625 C 50.507812 14.507812 50.488281 14.382812 50.472656 14.269531 C 50.453125 14.160156 50.433594 14.066406 50.40625 14.082031 Z M 50.40625 14.082031 " fill-opacity="1" fill-rule="nonzero"/><path fill="#9ea8c6" d="M 49.316406 9.621094 C 49.269531 9.621094 49.28125 9.78125 49.246094 9.832031 C 49.308594 9.902344 49.363281 9.976562 49.417969 10.050781 C 49.378906 9.914062 49.273438 9.667969 49.316406 9.621094 Z M 49.316406 9.621094 " fill-opacity="1" fill-rule="nonzero"/><path fill="#9ea8c6" d="M 49.246094 9.832031 C 49.15625 9.726562 49.074219 9.621094 48.984375 9.515625 C 49.15625 9.832031 49.21875 9.878906 49.246094 9.832031 Z M 49.246094 9.832031 " fill-opacity="1" fill-rule="nonzero"/><path fill="#9ea8c6" d="M 49.734375 11.503906 L 49.835938 11.640625 L 49.9375 11.78125 C 50 11.871094 50.066406 11.964844 50.128906 12.058594 C 49.984375 11.835938 49.839844 11.609375 49.683594 11.390625 Z M 49.734375 11.503906 " fill-opacity="1" fill-rule="nonzero"/><path fill="#9ea8c6" d="M 48.496094 8.285156 C 48.566406 8.332031 48.636719 8.378906 48.707031 8.421875 L 48.53125 8.289062 L 48.351562 8.160156 Z M 48.496094 8.285156 " fill-opacity="1" fill-rule="nonzero"/><path fill="#9ea8c6" d="M 47.875 7.449219 C 48.042969 7.539062 47.839844 7.179688 47.988281 7.292969 C 47.941406 7.238281 47.898438 7.1875 47.847656 7.140625 C 47.800781 7.09375 47.75 7.050781 47.703125 7.011719 C 47.601562 6.933594 47.507812 6.863281 47.410156 6.800781 C 47.5 6.875 47.578125 6.96875 47.65625 7.074219 C 47.734375 7.179688 47.804688 7.300781 47.875 7.449219 Z M 47.875 7.449219 " fill-opacity="1" fill-rule="nonzero"/><path fill="#9ea8c6" d="M 47.105469 6.582031 C 47.195312 6.65625 47.296875 6.722656 47.410156 6.800781 C 47.316406 6.722656 47.21875 6.644531 47.105469 6.582031 Z M 47.105469 6.582031 " fill-opacity="1" fill-rule="nonzero"/><path fill="#9ea8c6" d="M 48.644531 8.914062 C 48.648438 8.871094 48.675781 8.785156 48.570312 8.578125 L 48.5625 8.777344 C 48.585938 8.816406 48.613281 8.863281 48.644531 8.914062 Z M 48.644531 8.914062 " fill-opacity="1" fill-rule="nonzero"/><path fill="#9ea8c6" d="M 48.5625 8.785156 L 48.5625 8.777344 C 48.46875 8.632812 48.402344 8.53125 48.375 8.488281 C 48.398438 8.523438 48.457031 8.613281 48.5625 8.785156 Z M 48.5625 8.785156 " fill-opacity="1" fill-rule="nonzero"/><path fill="#9ea8c6" d="M 48.664062 8.949219 C 48.660156 8.933594 48.652344 8.925781 48.644531 8.914062 C 48.644531 8.933594 48.644531 8.945312 48.664062 8.949219 Z M 48.664062 8.949219 " fill-opacity="1" fill-rule="nonzero"/><path fill="#9ea8c6" d="M 49.382812 10.507812 C 49.304688 10.414062 49.1875 10.273438 49.109375 10.207031 C 49.03125 10.140625 48.992188 10.15625 49.058594 10.390625 C 49.132812 10.445312 49.152344 10.40625 49.183594 10.386719 C 49.199219 10.375 49.21875 10.375 49.25 10.386719 C 49.28125 10.402344 49.324219 10.4375 49.382812 10.507812 Z M 49.382812 10.507812 " fill-opacity="1" fill-rule="nonzero"/><path fill="#9ea8c6" d="M 48.644531 9.191406 C 48.710938 9.320312 48.773438 9.445312 48.839844 9.574219 C 48.859375 9.550781 48.859375 9.460938 48.949219 9.542969 C 48.847656 9.425781 48.75 9.308594 48.644531 9.191406 Z M 48.644531 9.191406 " fill-opacity="1" fill-rule="nonzero"/><path fill="#9ea8c6" d="M 48.5 9.035156 L 48.644531 9.191406 L 48.570312 9.050781 Z M 48.5 9.035156 " fill-opacity="1" fill-rule="nonzero"/><path fill="#9ea8c6" d="M 47.496094 7.222656 C 47.414062 7.164062 47.34375 7.097656 47.269531 7.023438 C 47.199219 6.949219 47.125 6.867188 47.046875 6.785156 C 47.117188 6.886719 47.195312 6.988281 47.269531 7.085938 C 47.339844 7.1875 47.417969 7.285156 47.496094 7.378906 C 47.519531 7.382812 47.5625 7.390625 47.578125 7.378906 C 47.589844 7.367188 47.582031 7.324219 47.496094 7.222656 Z M 47.496094 7.222656 " fill-opacity="1" fill-rule="nonzero"/><path fill="#9ea8c6" d="M 48.023438 7.976562 C 48.015625 7.964844 48.003906 7.953125 47.996094 7.945312 C 48.003906 7.972656 48.011719 7.992188 48.023438 7.976562 Z M 48.023438 7.976562 " fill-opacity="1" fill-rule="nonzero"/><path fill="#9ea8c6" d="M 45.476562 5.15625 C 45.484375 5.167969 45.484375 5.179688 45.492188 5.195312 C 45.496094 5.191406 45.503906 5.191406 45.511719 5.1875 Z M 45.476562 5.15625 " fill-opacity="1" fill-rule="nonzero"/><path fill="#9ea8c6" d="M 47.5 7.425781 C 47.597656 7.589844 47.6875 7.65625 47.777344 7.71875 C 47.6875 7.617188 47.589844 7.503906 47.492188 7.378906 C 47.472656 7.378906 47.464844 7.386719 47.5 7.425781 Z M 47.5 7.425781 " fill-opacity="1" fill-rule="nonzero"/><path fill="#9ea8c6" d="M 46.640625 6.144531 C 46.664062 6.1875 46.691406 6.230469 46.71875 6.28125 C 46.75 6.328125 46.777344 6.375 46.808594 6.425781 C 46.789062 6.378906 46.761719 6.308594 46.730469 6.25 C 46.695312 6.191406 46.660156 6.144531 46.640625 6.144531 Z M 46.640625 6.144531 " fill-opacity="1" fill-rule="nonzero"/><path fill="#9ea8c6" d="M 47.984375 7.878906 C 47.988281 7.882812 47.996094 7.890625 48.003906 7.894531 C 47.988281 7.832031 47.984375 7.84375 47.984375 7.878906 Z M 47.984375 7.878906 " fill-opacity="1" fill-rule="nonzero"/><path fill="#9ea8c6" d="M 47.984375 7.878906 C 47.914062 7.808594 47.847656 7.765625 47.777344 7.722656 C 47.851562 7.808594 47.925781 7.882812 47.992188 7.945312 C 47.984375 7.921875 47.984375 7.894531 47.984375 7.878906 Z M 47.984375 7.878906 " fill-opacity="1" fill-rule="nonzero"/><path fill="#9ea8c6" d="M 44.46875 5.269531 C 44.515625 5.238281 44.648438 5.277344 44.792969 5.378906 C 44.867188 5.425781 44.941406 5.484375 45.015625 5.558594 C 45.085938 5.632812 45.152344 5.714844 45.207031 5.804688 C 45.292969 5.859375 45.363281 5.871094 45.414062 5.855469 C 45.464844 5.839844 45.503906 5.792969 45.527344 5.730469 C 45.570312 5.597656 45.550781 5.390625 45.488281 5.191406 C 45.445312 5.222656 45.417969 5.246094 45.058594 5.015625 C 45.09375 5.089844 45.246094 5.265625 45.339844 5.414062 C 45.441406 5.558594 45.484375 5.664062 45.320312 5.578125 C 45.210938 5.496094 45.136719 5.429688 45.085938 5.378906 C 45.03125 5.328125 45.003906 5.292969 44.980469 5.261719 C 44.9375 5.191406 44.933594 5.132812 44.847656 5.023438 C 44.890625 5.148438 44.726562 5.070312 44.542969 4.992188 C 44.363281 4.914062 44.164062 4.839844 44.148438 4.953125 C 44.289062 5.035156 44.421875 5.121094 44.558594 5.207031 C 44.550781 5.238281 44.386719 5.164062 44.46875 5.269531 Z M 44.46875 5.269531 " fill-opacity="1" fill-rule="nonzero"/><path fill="#9ea8c6" d="M 46.070312 5.765625 L 46.199219 5.878906 C 46.136719 5.804688 46.085938 5.726562 46.035156 5.644531 C 45.984375 5.5625 45.933594 5.464844 45.871094 5.34375 C 45.621094 5.179688 45.546875 5.171875 45.511719 5.183594 C 45.71875 5.382812 45.921875 5.585938 46.121094 5.792969 Z M 46.070312 5.765625 " fill-opacity="1" fill-rule="nonzero"/><path fill="#9ea8c6" d="M 46.738281 6.453125 C 46.695312 6.449219 46.640625 6.425781 46.585938 6.398438 C 46.53125 6.375 46.476562 6.347656 46.429688 6.332031 C 46.335938 6.296875 46.277344 6.296875 46.3125 6.433594 C 46.359375 6.476562 46.398438 6.515625 46.429688 6.546875 C 46.460938 6.578125 46.488281 6.601562 46.515625 6.621094 C 46.5625 6.660156 46.597656 6.679688 46.632812 6.695312 C 46.695312 6.722656 46.75 6.726562 46.871094 6.824219 C 46.585938 6.527344 46.636719 6.558594 46.714844 6.605469 C 46.796875 6.652344 46.90625 6.714844 46.730469 6.46875 C 46.855469 6.574219 46.957031 6.679688 47.050781 6.785156 C 46.96875 6.660156 46.882812 6.542969 46.808594 6.425781 C 46.8125 6.433594 46.816406 6.4375 46.816406 6.445312 L 46.816406 6.449219 C 46.828125 6.484375 46.828125 6.5 46.808594 6.464844 C 46.804688 6.464844 46.800781 6.453125 46.796875 6.449219 C 46.78125 6.457031 46.757812 6.457031 46.738281 6.453125 C 46.597656 6.257812 46.734375 6.402344 46.796875 6.449219 C 46.800781 6.449219 46.8125 6.449219 46.816406 6.449219 C 46.816406 6.449219 46.816406 6.445312 46.816406 6.445312 C 46.765625 6.398438 46.714844 6.347656 46.664062 6.300781 L 46.359375 6.019531 L 46.203125 5.882812 C 46.3125 6.015625 46.464844 6.171875 46.738281 6.453125 Z M 46.738281 6.453125 " fill-opacity="1" fill-rule="nonzero"/><path fill="#9ea8c6" d="M 48.628906 10.128906 C 48.625 10.105469 48.632812 10.101562 48.640625 10.09375 C 48.601562 10.054688 48.582031 10.042969 48.628906 10.128906 Z M 48.628906 10.128906 " fill-opacity="1" fill-rule="nonzero"/><path fill="#9ea8c6" d="M 48.527344 9.804688 C 48.574219 9.847656 48.636719 9.867188 48.71875 10.039062 C 48.769531 10.203125 48.667969 10.066406 48.640625 10.09375 C 48.722656 10.175781 48.910156 10.40625 48.789062 10.0625 L 48.746094 10.019531 C 48.714844 9.945312 48.6875 9.859375 48.664062 9.777344 C 48.636719 9.695312 48.613281 9.613281 48.597656 9.542969 C 48.566406 9.398438 48.554688 9.300781 48.578125 9.320312 C 48.53125 9.457031 48.507812 9.566406 48.527344 9.804688 Z M 48.527344 9.804688 " fill-opacity="1" fill-rule="nonzero"/><path fill="#9ea8c6" d="M 47.691406 8.09375 C 47.542969 7.917969 47.386719 7.753906 47.234375 7.585938 L 47.359375 7.921875 L 47.398438 7.871094 C 47.453125 7.949219 47.492188 8.003906 47.523438 8.039062 C 47.554688 8.074219 47.578125 8.089844 47.597656 8.097656 C 47.636719 8.113281 47.65625 8.085938 47.691406 8.09375 Z M 47.691406 8.09375 " fill-opacity="1" fill-rule="nonzero"/><path fill="#9ea8c6" d="M 45.457031 5.054688 L 45.613281 5.027344 L 45.507812 4.988281 L 45.402344 4.953125 L 45.195312 4.886719 Z M 45.457031 5.054688 " fill-opacity="1" fill-rule="nonzero"/><path fill="#9ea8c6" d="M 44.765625 4.476562 L 44.863281 4.410156 C 44.785156 4.375 44.707031 4.34375 44.636719 4.308594 Z M 44.765625 4.476562 " fill-opacity="1" fill-rule="nonzero"/><path fill="#9ea8c6" d="M 17.660156 26.738281 L 17.777344 26.890625 C 17.726562 26.816406 17.691406 26.769531 17.660156 26.738281 Z M 17.660156 26.738281 " fill-opacity="1" fill-rule="nonzero"/><path fill="#9ea8c6" d="M 17.074219 25.503906 L 17.011719 25.492188 C 17.0625 25.539062 17.097656 25.554688 17.074219 25.503906 Z M 17.074219 25.503906 " fill-opacity="1" fill-rule="nonzero"/><path fill="#9ea8c6" d="M 23.929688 2.542969 C 23.621094 2.59375 23.25 2.636719 23.34375 2.722656 L 23.484375 2.777344 C 23.652344 2.652344 23.800781 2.589844 23.929688 2.542969 Z M 23.929688 2.542969 " fill-opacity="1" fill-rule="nonzero"/><path fill="#9ea8c6" d="M 15.589844 14.378906 C 15.609375 14.355469 15.625 14.332031 15.644531 14.304688 C 15.621094 14.230469 15.601562 14.15625 15.582031 14.089844 C 15.585938 14.179688 15.582031 14.273438 15.589844 14.378906 Z M 15.589844 14.378906 " fill-opacity="1" fill-rule="nonzero"/><path fill="#9ea8c6" d="M 16.023438 14.6875 C 16 14.746094 15.96875 14.796875 15.945312 14.855469 L 15.867188 15.027344 C 15.910156 14.953125 15.957031 14.84375 16.023438 14.6875 Z M 16.023438 14.6875 " fill-opacity="1" fill-rule="nonzero"/><path fill="#9ea8c6" d="M 22.550781 32.292969 C 22.632812 32.304688 22.714844 32.320312 22.796875 32.328125 C 22.730469 32.277344 22.683594 32.25 22.652344 32.234375 C 22.621094 32.21875 22.605469 32.21875 22.59375 32.222656 C 22.570312 32.234375 22.578125 32.277344 22.550781 32.292969 Z M 22.550781 32.292969 " fill-opacity="1" fill-rule="nonzero"/><path fill="#9ea8c6" d="M 36.464844 0.613281 C 36.34375 0.566406 36.230469 0.527344 36.128906 0.5 C 36.027344 0.46875 35.929688 0.449219 35.84375 0.433594 C 35.992188 0.492188 36.121094 0.554688 36.226562 0.597656 C 36.332031 0.636719 36.414062 0.65625 36.464844 0.613281 Z M 36.464844 0.613281 " fill-opacity="1" fill-rule="nonzero"/><path fill="#9ea8c6" d="M 16.273438 26.8125 C 16.347656 26.914062 16.394531 26.953125 16.417969 26.9375 C 16.34375 26.828125 16.289062 26.777344 16.273438 26.8125 Z M 16.273438 26.8125 " fill-opacity="1" fill-rule="nonzero"/><path fill="#9ea8c6" d="M 35.105469 0.332031 C 35.152344 0.347656 35.191406 0.363281 35.238281 0.378906 C 35.332031 0.382812 35.425781 0.382812 35.523438 0.394531 C 35.625 0.402344 35.730469 0.414062 35.839844 0.433594 C 35.730469 0.390625 35.609375 0.355469 35.488281 0.332031 C 35.429688 0.324219 35.367188 0.316406 35.296875 0.3125 C 35.238281 0.3125 35.171875 0.316406 35.105469 0.332031 Z M 35.105469 0.332031 " fill-opacity="1" fill-rule="nonzero"/><path fill="#9ea8c6" d="M 46.691406 29.011719 C 46.707031 29 46.722656 28.980469 46.738281 28.972656 C 46.730469 28.957031 46.714844 28.980469 46.691406 29.011719 Z M 46.691406 29.011719 " fill-opacity="1" fill-rule="nonzero"/><path fill="#9ea8c6" d="M 51.027344 22.082031 C 51.019531 22.164062 50.992188 22.296875 50.96875 22.425781 C 50.988281 22.363281 51.007812 22.257812 51.027344 22.082031 Z M 51.027344 22.082031 " fill-opacity="1" fill-rule="nonzero"/><path fill="#9ea8c6" d="M 41.777344 2.40625 C 41.953125 2.488281 41.8125 2.40625 41.777344 2.40625 Z M 41.777344 2.40625 " fill-opacity="1" fill-rule="nonzero"/><path fill="#9ea8c6" d="M 42.34375 3.273438 C 42.304688 3.261719 42.269531 3.261719 42.25 3.285156 C 42.277344 3.265625 42.308594 3.261719 42.34375 3.273438 Z M 42.34375 3.273438 " fill-opacity="1" fill-rule="nonzero"/><path fill="#9ea8c6" d="M 33.1875 0.945312 C 33.179688 0.945312 33.175781 0.945312 33.167969 0.945312 C 33.222656 0.96875 33.214844 0.964844 33.1875 0.945312 Z M 33.1875 0.945312 " fill-opacity="1" fill-rule="nonzero"/><path fill="#9ea8c6" d="M 42.003906 2.59375 C 41.949219 2.542969 41.882812 2.492188 41.804688 2.441406 C 41.835938 2.46875 41.898438 2.515625 42.003906 2.59375 Z M 42.003906 2.59375 " fill-opacity="1" fill-rule="nonzero"/><path fill="#9ea8c6" d="M 41.996094 2.523438 C 42.050781 2.5625 42.09375 2.589844 42.136719 2.617188 C 42.167969 2.609375 42.15625 2.589844 41.996094 2.523438 Z M 41.996094 2.523438 " fill-opacity="1" fill-rule="nonzero"/><path fill="#9ea8c6" d="M 41.535156 2.285156 C 41.636719 2.335938 41.722656 2.386719 41.804688 2.441406 C 41.777344 2.417969 41.761719 2.40625 41.777344 2.40625 C 41.726562 2.378906 41.65625 2.34375 41.535156 2.285156 Z M 41.535156 2.285156 " fill-opacity="1" fill-rule="nonzero"/><path fill="#9ea8c6" d="M 34.351562 36.132812 C 34.363281 36.136719 34.375 36.136719 34.390625 36.140625 C 34.566406 36.074219 34.488281 36.089844 34.351562 36.132812 Z M 34.351562 36.132812 " fill-opacity="1" fill-rule="nonzero"/><path fill="#9ea8c6" d="M 20.804688 6.386719 C 20.8125 6.382812 20.8125 6.375 20.8125 6.367188 C 20.808594 6.375 20.796875 6.378906 20.792969 6.382812 Z M 20.804688 6.386719 " fill-opacity="1" fill-rule="nonzero"/><path fill="#9ea8c6" d="M 20.417969 6.902344 C 20.460938 6.753906 20.511719 6.65625 20.574219 6.574219 C 20.636719 6.496094 20.710938 6.441406 20.792969 6.382812 C 20.664062 6.347656 20.53125 6.316406 20.398438 6.285156 C 20.402344 6.496094 20.410156 6.699219 20.417969 6.902344 Z M 20.417969 6.902344 " fill-opacity="1" fill-rule="nonzero"/><g clip-path="url(#d10a5f36ac)"><path fill="#9ea8c6" d="M 19.488281 29.449219 L 19.390625 29.242188 L 19.296875 29.035156 C 19.53125 29.195312 19.699219 29.351562 19.785156 29.421875 C 19.832031 29.457031 19.855469 29.46875 19.863281 29.445312 C 19.871094 29.425781 19.851562 29.367188 19.816406 29.265625 C 19.734375 29.3125 19.625 29.253906 19.503906 29.140625 C 19.382812 29.027344 19.242188 28.863281 19.117188 28.6875 C 18.980469 28.519531 18.859375 28.34375 18.742188 28.222656 C 18.628906 28.097656 18.527344 28.027344 18.4375 28.066406 C 18.40625 27.96875 18.371094 27.871094 18.34375 27.777344 C 18.386719 27.847656 18.410156 27.847656 18.453125 27.921875 C 18.414062 27.777344 18.367188 27.695312 18.3125 27.632812 C 18.285156 27.605469 18.253906 27.582031 18.222656 27.5625 C 18.191406 27.542969 18.160156 27.527344 18.128906 27.511719 C 17.988281 27.445312 17.828125 27.371094 17.671875 27.03125 C 17.644531 26.96875 17.621094 26.914062 17.609375 26.863281 C 17.59375 26.8125 17.585938 26.773438 17.582031 26.746094 C 17.574219 26.683594 17.597656 26.671875 17.65625 26.742188 C 17.601562 26.664062 17.539062 26.585938 17.480469 26.507812 L 17.3125 26.269531 C 17.277344 26.195312 17.28125 26.15625 17.300781 26.160156 C 17.320312 26.164062 17.355469 26.199219 17.390625 26.277344 C 17.253906 26.019531 17.121094 25.757812 16.996094 25.492188 L 17.011719 25.496094 C 16.957031 25.453125 16.886719 25.367188 16.8125 25.285156 C 16.742188 25.203125 16.667969 25.117188 16.628906 25.058594 C 16.597656 24.828125 16.703125 25.148438 16.726562 25.078125 C 16.640625 24.9375 16.550781 24.792969 16.46875 24.652344 C 16.480469 24.539062 16.539062 24.574219 16.613281 24.671875 C 16.6875 24.773438 16.769531 24.9375 16.828125 25.097656 C 16.871094 24.957031 16.882812 24.863281 16.867188 24.792969 C 16.851562 24.722656 16.8125 24.664062 16.765625 24.59375 C 16.714844 24.523438 16.660156 24.4375 16.605469 24.308594 C 16.574219 24.246094 16.554688 24.167969 16.535156 24.078125 C 16.515625 23.984375 16.496094 23.878906 16.488281 23.753906 C 16.546875 23.894531 16.609375 24.035156 16.671875 24.175781 C 16.699219 24.089844 16.710938 24.003906 16.707031 23.921875 C 16.703125 23.835938 16.691406 23.75 16.679688 23.652344 C 16.664062 23.5625 16.644531 23.460938 16.628906 23.351562 C 16.609375 23.242188 16.601562 23.125 16.601562 22.992188 C 16.59375 23.023438 16.585938 23.109375 16.574219 23.210938 C 16.566406 23.261719 16.5625 23.3125 16.554688 23.363281 C 16.546875 23.417969 16.539062 23.46875 16.535156 23.515625 C 16.503906 23.710938 16.445312 23.828125 16.324219 23.589844 C 16.308594 23.441406 16.269531 23.25 16.121094 22.992188 C 16.1875 22.972656 16.195312 22.902344 16.175781 22.789062 C 16.164062 22.734375 16.148438 22.667969 16.128906 22.597656 C 16.109375 22.523438 16.089844 22.445312 16.070312 22.359375 L 16.246094 22.347656 C 16.214844 22.257812 16.1875 22.199219 16.15625 22.148438 C 16.132812 22.101562 16.105469 22.066406 16.082031 22.035156 C 16.03125 21.980469 15.980469 21.941406 15.917969 21.839844 C 15.863281 21.425781 15.984375 21.320312 16.085938 21.203125 C 16.054688 20.878906 16.019531 20.996094 15.96875 21.101562 C 15.921875 21.210938 15.863281 21.304688 15.792969 20.914062 C 15.792969 20.777344 15.789062 20.644531 15.773438 20.523438 C 15.765625 20.398438 15.746094 20.277344 15.722656 20.152344 C 15.683594 19.90625 15.617188 19.644531 15.554688 19.3125 C 15.601562 18.917969 15.664062 19.378906 15.710938 19.234375 C 15.660156 19.121094 15.617188 19.007812 15.566406 18.890625 C 15.566406 18.808594 15.609375 18.835938 15.632812 18.847656 C 15.617188 18.773438 15.601562 18.738281 15.582031 18.714844 C 15.5625 18.691406 15.539062 18.683594 15.515625 18.671875 C 15.476562 18.640625 15.429688 18.59375 15.410156 18.363281 C 15.363281 18.332031 15.359375 18.253906 15.375 18.148438 C 15.386719 18.097656 15.398438 18.039062 15.417969 17.972656 C 15.425781 17.941406 15.4375 17.90625 15.445312 17.875 C 15.457031 17.839844 15.46875 17.804688 15.476562 17.769531 C 15.5625 17.480469 15.652344 17.140625 15.578125 16.847656 C 15.644531 16.714844 15.675781 16.925781 15.75 16.890625 C 15.71875 16.496094 15.722656 16.324219 15.707031 16.171875 C 15.703125 16.097656 15.699219 16.023438 15.6875 15.929688 C 15.679688 15.882812 15.671875 15.828125 15.667969 15.765625 C 15.664062 15.730469 15.65625 15.699219 15.652344 15.664062 C 15.652344 15.628906 15.648438 15.585938 15.640625 15.542969 L 15.75 15.285156 C 15.785156 15.199219 15.828125 15.113281 15.863281 15.027344 C 15.757812 15.210938 15.691406 15.167969 15.652344 15.019531 C 15.632812 14.949219 15.617188 14.847656 15.605469 14.730469 C 15.597656 14.621094 15.59375 14.496094 15.589844 14.375 C 15.496094 14.503906 15.40625 14.609375 15.363281 14.691406 L 15.40625 14.320312 C 15.417969 14.195312 15.441406 14.070312 15.457031 13.945312 C 15.507812 13.867188 15.546875 13.957031 15.585938 14.09375 C 15.585938 14.039062 15.582031 13.992188 15.582031 13.949219 C 15.648438 13.828125 15.695312 13.808594 15.734375 13.847656 C 15.769531 13.882812 15.796875 13.976562 15.820312 14.082031 C 15.761719 14.15625 15.703125 14.234375 15.644531 14.308594 C 15.703125 14.511719 15.78125 14.703125 15.890625 14.691406 C 15.878906 14.640625 15.886719 14.546875 15.898438 14.449219 C 15.914062 14.503906 15.933594 14.539062 15.957031 14.519531 C 15.984375 14.5 15.960938 14.417969 15.949219 14.289062 L 16.179688 14.183594 L 16.117188 14.125 C 16.238281 13.832031 16.371094 13.546875 16.507812 13.265625 C 16.515625 13.089844 16.519531 12.917969 16.523438 12.742188 C 16.523438 12.65625 16.527344 12.566406 16.535156 12.476562 C 16.539062 12.382812 16.542969 12.292969 16.558594 12.195312 C 16.566406 12.101562 16.578125 12.003906 16.59375 11.902344 C 16.609375 11.800781 16.632812 11.695312 16.660156 11.585938 C 16.671875 11.53125 16.683594 11.476562 16.699219 11.417969 C 16.714844 11.363281 16.734375 11.304688 16.75 11.246094 C 16.789062 11.128906 16.832031 11.003906 16.886719 10.878906 C 16.894531 11.183594 17.070312 11.035156 17.21875 11.125 C 17.144531 11.167969 17.089844 11.242188 17.046875 11.332031 C 17 11.425781 16.960938 11.53125 16.933594 11.648438 C 16.902344 11.765625 16.871094 11.890625 16.835938 12.019531 C 16.800781 12.148438 16.753906 12.28125 16.695312 12.402344 C 16.820312 12.144531 16.871094 12.230469 16.871094 12.3125 C 16.90625 12.148438 16.941406 11.988281 16.984375 11.824219 L 17.046875 11.582031 L 17.113281 11.34375 C 17.167969 11.378906 17.21875 11.34375 17.269531 11.273438 C 17.320312 11.199219 17.378906 11.09375 17.464844 10.992188 C 17.296875 11.019531 17.335938 10.832031 17.441406 10.59375 C 17.464844 10.53125 17.496094 10.46875 17.527344 10.40625 C 17.558594 10.34375 17.589844 10.273438 17.621094 10.210938 C 17.65625 10.148438 17.683594 10.085938 17.710938 10.027344 C 17.742188 9.96875 17.761719 9.917969 17.777344 9.867188 C 17.871094 9.890625 17.902344 10.019531 17.640625 10.4375 C 17.753906 10.34375 17.8125 10.25 17.847656 10.15625 C 17.878906 10.058594 17.890625 9.964844 17.898438 9.867188 C 17.910156 9.675781 17.933594 9.480469 18.148438 9.300781 C 18.085938 9.40625 18.039062 9.453125 18.054688 9.515625 C 18.074219 9.445312 18.113281 9.355469 18.164062 9.273438 C 18.21875 9.1875 18.28125 9.097656 18.335938 9.023438 C 18.394531 8.949219 18.453125 8.894531 18.492188 8.863281 C 18.53125 8.835938 18.558594 8.835938 18.550781 8.882812 L 18.484375 8.980469 C 18.71875 8.660156 19.082031 8.171875 19.390625 7.746094 C 19.464844 7.640625 19.539062 7.539062 19.609375 7.441406 C 19.640625 7.394531 19.671875 7.347656 19.699219 7.300781 C 19.730469 7.257812 19.757812 7.214844 19.78125 7.175781 C 19.875 7.015625 19.925781 6.890625 19.90625 6.828125 C 19.933594 6.84375 20.042969 7.097656 20.042969 7.164062 C 20.167969 6.636719 20.320312 6.109375 20.496094 5.582031 C 20.519531 5.699219 20.707031 5.757812 20.828125 5.859375 C 20.894531 5.910156 20.941406 5.972656 20.949219 6.050781 C 20.949219 6.09375 20.945312 6.136719 20.925781 6.1875 C 20.90625 6.242188 20.875 6.296875 20.824219 6.367188 C 20.902344 6.3125 20.984375 6.246094 21.085938 6.160156 C 21.183594 6.074219 21.292969 5.957031 21.421875 5.800781 C 21.363281 5.832031 21.253906 5.832031 21.175781 5.804688 C 21.09375 5.785156 21.042969 5.734375 21.105469 5.667969 C 21.363281 5.585938 21.445312 5.550781 21.539062 5.511719 C 21.582031 5.488281 21.632812 5.464844 21.707031 5.429688 C 21.78125 5.394531 21.875 5.347656 22.023438 5.292969 C 21.933594 5.339844 21.878906 5.265625 21.882812 5.160156 C 21.882812 5.054688 21.941406 4.90625 22.066406 4.816406 C 22.054688 4.882812 22.277344 5.042969 22.207031 5.140625 C 22.277344 5.023438 22.347656 4.902344 22.417969 4.785156 C 22.488281 4.664062 22.566406 4.546875 22.640625 4.429688 C 22.515625 4.589844 22.765625 4.664062 22.957031 4.632812 C 22.902344 4.632812 23.042969 4.539062 23.207031 4.429688 C 23.289062 4.375 23.386719 4.324219 23.464844 4.269531 C 23.546875 4.21875 23.617188 4.171875 23.652344 4.136719 C 23.546875 4.171875 23.445312 4.210938 23.34375 4.25 C 23.4375 4.195312 23.511719 4.140625 23.582031 4.089844 C 23.648438 4.039062 23.703125 3.988281 23.75 3.933594 C 23.796875 3.882812 23.835938 3.832031 23.871094 3.78125 C 23.90625 3.730469 23.9375 3.679688 23.96875 3.628906 C 24.035156 3.527344 24.097656 3.417969 24.195312 3.320312 C 24.296875 3.21875 24.421875 3.113281 24.621094 3.015625 C 24.558594 3.117188 24.578125 3.480469 24.980469 3.3125 C 25.007812 3.253906 25.046875 3.160156 25.105469 3.039062 C 25.164062 2.921875 25.238281 2.777344 25.335938 2.632812 C 25.382812 2.558594 25.433594 2.484375 25.492188 2.410156 C 25.550781 2.335938 25.613281 2.265625 25.679688 2.191406 C 25.746094 2.121094 25.820312 2.050781 25.898438 1.988281 C 25.972656 1.925781 26.058594 1.867188 26.144531 1.816406 C 26.199219 1.828125 26.257812 1.832031 26.320312 1.84375 C 26.492188 1.742188 26.671875 1.636719 26.855469 1.539062 C 26.785156 1.625 26.679688 1.742188 26.5625 1.878906 C 26.5 1.945312 26.4375 2.015625 26.371094 2.089844 C 26.300781 2.164062 26.230469 2.238281 26.164062 2.320312 C 26.023438 2.472656 25.882812 2.632812 25.746094 2.773438 C 25.617188 2.917969 25.492188 3.050781 25.390625 3.152344 C 25.550781 3.117188 25.582031 3.132812 25.628906 3.128906 C 25.652344 3.128906 25.675781 3.121094 25.726562 3.101562 C 25.773438 3.085938 25.839844 3.050781 25.953125 3.003906 C 26.046875 3.011719 26 3.066406 25.914062 3.125 C 25.828125 3.1875 25.707031 3.257812 25.640625 3.289062 L 26.15625 3.085938 L 26.285156 3.039062 L 26.417969 2.996094 L 26.679688 2.902344 C 26.621094 2.828125 26.804688 2.710938 26.988281 2.59375 C 27.175781 2.480469 27.367188 2.371094 27.324219 2.304688 C 26.960938 2.496094 26.601562 2.703125 26.253906 2.914062 C 26.199219 2.839844 26.304688 2.652344 26.53125 2.449219 C 26.757812 2.253906 27.105469 2.039062 27.5 1.933594 C 27.609375 1.9375 27.597656 2.027344 27.5625 2.125 C 27.527344 2.21875 27.472656 2.320312 27.492188 2.347656 C 27.511719 2.324219 27.5625 2.289062 27.632812 2.253906 C 27.703125 2.21875 27.785156 2.179688 27.875 2.144531 C 28.046875 2.074219 28.222656 2.019531 28.265625 2.03125 C 28.167969 2.09375 28.066406 2.160156 27.96875 2.21875 C 28.078125 2.207031 28.171875 2.167969 28.261719 2.128906 C 28.351562 2.085938 28.433594 2.035156 28.519531 1.988281 C 28.605469 1.9375 28.699219 1.898438 28.800781 1.867188 C 28.851562 1.851562 28.910156 1.84375 28.96875 1.835938 C 29.03125 1.828125 29.09375 1.832031 29.164062 1.839844 C 29.210938 1.832031 29.269531 1.835938 29.335938 1.84375 C 29.398438 1.851562 29.464844 1.863281 29.527344 1.878906 C 29.648438 1.898438 29.753906 1.910156 29.753906 1.851562 C 29.425781 1.699219 29.226562 1.074219 29.40625 0.878906 C 29.441406 0.878906 29.699219 0.878906 29.976562 0.898438 C 30.046875 0.902344 30.117188 0.910156 30.183594 0.914062 C 30.253906 0.921875 30.316406 0.925781 30.382812 0.9375 C 30.503906 0.953125 30.605469 0.96875 30.660156 0.988281 C 30.828125 1.050781 30.722656 1.164062 30.613281 1.273438 C 30.503906 1.386719 30.398438 1.492188 30.535156 1.546875 C 30.539062 1.496094 30.695312 1.410156 30.765625 1.382812 C 30.960938 1.402344 30.703125 1.546875 31.117188 1.472656 C 31.167969 1.28125 31.976562 1.414062 31.304688 1.300781 C 31.40625 1.277344 31.484375 1.265625 31.550781 1.261719 C 31.617188 1.257812 31.679688 1.261719 31.738281 1.265625 C 31.859375 1.273438 31.984375 1.285156 32.230469 1.269531 C 32.148438 1.214844 32.253906 1.105469 32.433594 1.003906 C 32.523438 0.957031 32.632812 0.910156 32.746094 0.871094 C 32.804688 0.851562 32.859375 0.832031 32.917969 0.820312 C 32.976562 0.808594 33.03125 0.796875 33.082031 0.789062 C 33.058594 0.839844 33.152344 0.902344 33.199219 0.929688 C 33.253906 0.933594 33.304688 0.933594 33.355469 0.9375 C 33.40625 0.941406 33.457031 0.945312 33.503906 0.945312 C 33.601562 0.953125 33.691406 0.960938 33.78125 0.972656 C 33.957031 0.992188 34.125 1.015625 34.285156 1.039062 C 34.441406 1.0625 34.601562 1.089844 34.773438 1.113281 C 34.855469 1.128906 34.941406 1.144531 35.035156 1.15625 C 35.078125 1.164062 35.125 1.167969 35.171875 1.175781 C 35.21875 1.179688 35.265625 1.1875 35.3125 1.199219 C 35.347656 1.226562 35.457031 1.265625 35.539062 1.304688 C 35.617188 1.347656 35.664062 1.386719 35.578125 1.417969 C 35.699219 1.402344 35.8125 1.355469 36.054688 1.390625 C 36.273438 1.515625 36.136719 1.496094 35.988281 1.480469 C 35.835938 1.46875 35.671875 1.453125 35.835938 1.578125 C 35.882812 1.472656 36.480469 1.539062 36.839844 1.554688 C 36.824219 1.503906 36.765625 1.46875 36.683594 1.441406 C 36.601562 1.414062 36.492188 1.394531 36.378906 1.382812 C 36.257812 1.371094 36.132812 1.363281 36.015625 1.363281 C 35.898438 1.363281 35.785156 1.367188 35.699219 1.367188 C 35.714844 1.253906 35.886719 1.160156 36.160156 1.105469 C 36.296875 1.078125 36.464844 1.0625 36.644531 1.058594 C 36.828125 1.054688 37.03125 1.0625 37.25 1.085938 C 37.417969 1.113281 37.519531 1.140625 37.574219 1.164062 C 37.632812 1.191406 37.644531 1.214844 37.640625 1.234375 C 37.632812 1.277344 37.558594 1.300781 37.617188 1.300781 C 37.925781 1.386719 38.148438 1.4375 38.328125 1.457031 C 38.507812 1.480469 38.648438 1.476562 38.78125 1.472656 C 38.910156 1.472656 39.035156 1.476562 39.183594 1.507812 C 39.261719 1.523438 39.339844 1.554688 39.433594 1.589844 C 39.480469 1.609375 39.53125 1.632812 39.582031 1.65625 C 39.632812 1.683594 39.6875 1.710938 39.746094 1.75 C 39.914062 1.898438 39.890625 1.96875 39.832031 2.015625 C 39.773438 2.066406 39.679688 2.097656 39.703125 2.164062 C 39.636719 2.144531 39.574219 2.121094 39.515625 2.097656 C 39.460938 2.082031 39.40625 2.058594 39.355469 2.035156 C 39.253906 1.992188 39.164062 1.945312 39.078125 1.894531 C 38.996094 1.851562 38.917969 1.808594 38.835938 1.765625 C 38.800781 1.746094 38.757812 1.726562 38.714844 1.707031 C 38.675781 1.691406 38.632812 1.675781 38.589844 1.660156 C 38.730469 1.726562 38.863281 1.804688 39 1.878906 C 38.910156 1.871094 38.777344 1.84375 38.640625 1.808594 C 38.503906 1.777344 38.371094 1.734375 38.28125 1.683594 C 38.355469 1.742188 38.519531 1.808594 38.730469 1.894531 C 38.839844 1.941406 38.957031 1.984375 39.089844 2.03125 C 39.21875 2.082031 39.355469 2.136719 39.496094 2.191406 C 39.636719 2.253906 39.785156 2.308594 39.929688 2.371094 C 40 2.40625 40.074219 2.4375 40.140625 2.472656 C 40.210938 2.503906 40.285156 2.535156 40.351562 2.574219 C 40.421875 2.609375 40.492188 2.644531 40.558594 2.675781 C 40.625 2.710938 40.6875 2.746094 40.75 2.78125 C 40.871094 2.855469 40.988281 2.921875 41.085938 2.992188 C 41.261719 3.027344 41.550781 3.121094 41.453125 3.003906 L 41.171875 2.882812 C 41.074219 2.761719 41.222656 2.792969 41.355469 2.828125 C 41.488281 2.859375 41.605469 2.894531 41.445312 2.777344 C 41.496094 2.792969 41.550781 2.804688 41.601562 2.820312 C 41.65625 2.835938 41.707031 2.851562 41.761719 2.871094 C 41.871094 2.90625 41.988281 2.941406 42.101562 2.988281 C 42.214844 3.035156 42.332031 3.089844 42.449219 3.152344 C 42.566406 3.222656 42.683594 3.300781 42.800781 3.390625 L 42.800781 3.59375 C 42.820312 3.542969 42.53125 3.304688 42.359375 3.261719 C 42.425781 3.277344 42.496094 3.328125 42.570312 3.394531 C 42.648438 3.460938 42.734375 3.542969 42.816406 3.621094 C 42.902344 3.699219 42.988281 3.773438 43.074219 3.828125 C 43.160156 3.882812 43.25 3.917969 43.335938 3.910156 C 43.246094 3.800781 43.15625 3.6875 43.058594 3.578125 C 43.160156 3.617188 43.265625 3.664062 43.378906 3.703125 C 43.488281 3.746094 43.609375 3.792969 43.722656 3.847656 C 43.835938 3.902344 43.957031 3.960938 44.066406 4.03125 C 44.179688 4.101562 44.285156 4.179688 44.378906 4.273438 C 44.335938 4.132812 44.308594 4.117188 44.269531 4.089844 C 44.230469 4.0625 44.183594 4.019531 44.085938 3.832031 C 44.148438 4.023438 43.871094 3.820312 43.617188 3.636719 C 43.488281 3.546875 43.363281 3.457031 43.289062 3.425781 C 43.210938 3.394531 43.191406 3.421875 43.261719 3.542969 C 43.214844 3.441406 43.15625 3.367188 43.097656 3.296875 C 43.035156 3.230469 42.96875 3.171875 42.894531 3.117188 C 42.75 3 42.59375 2.882812 42.421875 2.671875 C 42.414062 2.699219 42.441406 2.746094 42.421875 2.753906 C 42.410156 2.757812 42.390625 2.75 42.347656 2.726562 C 42.304688 2.707031 42.242188 2.664062 42.148438 2.605469 C 42.125 2.609375 42.074219 2.605469 42.039062 2.597656 C 42.023438 2.589844 42.023438 2.585938 42.011719 2.578125 C 42.019531 2.585938 42.023438 2.59375 42.03125 2.597656 C 42.007812 2.59375 42.007812 2.597656 42.039062 2.605469 C 42.117188 2.675781 42.179688 2.746094 42.195312 2.789062 C 42.128906 2.789062 42.042969 2.765625 41.945312 2.734375 C 41.898438 2.71875 41.847656 2.699219 41.792969 2.675781 C 41.742188 2.65625 41.6875 2.632812 41.628906 2.609375 C 41.519531 2.566406 41.414062 2.523438 41.316406 2.480469 C 41.222656 2.441406 41.136719 2.417969 41.074219 2.40625 C 40.851562 2.265625 41.203125 2.394531 41.101562 2.28125 L 40.917969 2.246094 L 40.734375 2.214844 C 40.746094 2.148438 40.609375 2.03125 40.542969 1.949219 C 40.507812 1.914062 40.496094 1.878906 40.527344 1.875 C 40.558594 1.863281 40.632812 1.878906 40.785156 1.929688 C 40.613281 1.847656 40.441406 1.773438 40.269531 1.695312 C 40.199219 1.644531 40.125 1.597656 40.039062 1.554688 C 39.957031 1.503906 39.871094 1.460938 39.78125 1.421875 C 39.605469 1.347656 39.429688 1.285156 39.289062 1.261719 C 39.164062 1.203125 38.992188 1.179688 38.886719 1.167969 C 38.777344 1.160156 38.730469 1.164062 38.855469 1.152344 C 38.710938 1.121094 38.566406 1.085938 38.421875 1.054688 L 37.988281 0.964844 L 37.988281 0.933594 C 37.570312 0.808594 37.121094 0.753906 36.660156 0.683594 C 36.203125 0.617188 35.730469 0.535156 35.25 0.367188 C 35.105469 0.367188 34.949219 0.367188 34.777344 0.355469 C 34.691406 0.351562 34.597656 0.347656 34.496094 0.335938 C 34.445312 0.332031 34.390625 0.328125 34.335938 0.316406 C 34.285156 0.3125 34.222656 0.304688 34.164062 0.296875 L 34.074219 0.183594 C 33.882812 0.1875 33.601562 0.152344 33.34375 0.128906 C 33.082031 0.109375 32.855469 0.09375 32.769531 0.152344 C 32.566406 0.0117188 32.097656 0 31.601562 0.0507812 C 31.109375 0.0976562 30.589844 0.199219 30.253906 0.226562 L 30.246094 0.367188 C 29.789062 0.425781 29.363281 0.539062 28.824219 0.71875 L 28.882812 0.828125 C 28.769531 0.875 28.636719 0.917969 28.492188 0.953125 C 28.339844 0.984375 28.183594 1.015625 28.011719 1.046875 C 27.96875 1.050781 27.921875 1.0625 27.878906 1.066406 C 27.835938 1.078125 27.789062 1.082031 27.746094 1.09375 C 27.65625 1.109375 27.5625 1.128906 27.472656 1.148438 C 27.382812 1.164062 27.289062 1.191406 27.199219 1.214844 C 27.105469 1.242188 27.015625 1.269531 26.925781 1.300781 C 26.960938 1.238281 27.148438 1.191406 27.289062 1.175781 C 27.167969 1.179688 27.050781 1.191406 26.933594 1.214844 C 26.820312 1.242188 26.703125 1.277344 26.59375 1.316406 C 26.480469 1.359375 26.371094 1.410156 26.265625 1.464844 C 26.15625 1.515625 26.050781 1.574219 25.945312 1.632812 C 25.734375 1.746094 25.535156 1.875 25.332031 1.976562 C 25.132812 2.082031 24.925781 2.167969 24.71875 2.214844 C 24.554688 2.34375 24.414062 2.402344 24.269531 2.441406 C 24.285156 2.433594 24.300781 2.421875 24.3125 2.414062 C 24.292969 2.421875 24.261719 2.4375 24.234375 2.453125 C 24.191406 2.464844 24.140625 2.472656 24.09375 2.488281 C 24.046875 2.5 24 2.515625 23.949219 2.53125 C 24.039062 2.515625 24.125 2.496094 24.191406 2.472656 C 24.125 2.511719 24.035156 2.566406 23.945312 2.625 C 23.851562 2.6875 23.753906 2.753906 23.65625 2.828125 L 23.5 2.765625 C 23.484375 2.777344 23.472656 2.785156 23.457031 2.796875 C 23.226562 2.875 23.324219 2.949219 23.484375 2.96875 C 23.390625 3.050781 23.3125 3.128906 23.257812 3.203125 C 23.121094 3.160156 22.996094 3.257812 22.867188 3.359375 C 22.804688 3.410156 22.738281 3.464844 22.667969 3.5 C 22.597656 3.539062 22.519531 3.5625 22.433594 3.550781 C 22.417969 3.59375 22.347656 3.664062 22.257812 3.746094 C 22.171875 3.832031 22.058594 3.933594 21.949219 4.03125 C 21.84375 4.132812 21.742188 4.242188 21.667969 4.335938 C 21.597656 4.429688 21.554688 4.519531 21.566406 4.585938 C 21.542969 4.566406 21.476562 4.597656 21.578125 4.519531 C 21.351562 4.660156 21.136719 4.808594 21 5.011719 L 20.804688 4.957031 L 20.664062 5.230469 L 20.53125 5.507812 C 20.367188 5.585938 20.253906 5.644531 20.195312 5.636719 C 20.136719 5.632812 20.140625 5.5625 20.21875 5.398438 C 20.101562 5.578125 20.019531 5.703125 19.949219 5.796875 C 19.882812 5.890625 19.835938 5.957031 19.785156 6.015625 C 19.738281 6.078125 19.695312 6.136719 19.644531 6.21875 C 19.589844 6.304688 19.523438 6.414062 19.445312 6.574219 L 19.386719 6.476562 C 19.304688 6.570312 19.222656 6.722656 19.140625 6.851562 C 19.0625 6.984375 18.980469 7.097656 18.898438 7.128906 C 18.832031 7.164062 18.757812 7.230469 18.667969 7.3125 C 18.625 7.351562 18.582031 7.398438 18.53125 7.449219 C 18.484375 7.5 18.4375 7.554688 18.386719 7.617188 C 18.335938 7.675781 18.28125 7.742188 18.230469 7.808594 C 18.179688 7.875 18.121094 7.945312 18.066406 8.019531 C 18.039062 8.058594 18.007812 8.09375 17.980469 8.132812 C 17.953125 8.167969 17.921875 8.210938 17.898438 8.25 C 17.839844 8.328125 17.78125 8.410156 17.726562 8.492188 C 17.496094 8.828125 17.257812 9.195312 17.03125 9.558594 C 16.921875 9.738281 16.808594 9.917969 16.699219 10.085938 C 16.644531 10.171875 16.59375 10.257812 16.539062 10.339844 C 16.484375 10.421875 16.433594 10.5 16.382812 10.578125 C 16.589844 10.523438 16.480469 10.65625 16.347656 10.828125 C 16.28125 10.914062 16.210938 11.007812 16.164062 11.09375 C 16.121094 11.175781 16.109375 11.25 16.160156 11.289062 C 16.058594 11.335938 15.933594 11.507812 15.96875 11.261719 C 15.941406 11.351562 15.910156 11.433594 15.878906 11.515625 C 15.84375 11.589844 15.816406 11.664062 15.785156 11.734375 C 15.753906 11.800781 15.722656 11.867188 15.695312 11.925781 C 15.667969 11.988281 15.640625 12.046875 15.613281 12.105469 C 15.585938 12.160156 15.5625 12.21875 15.542969 12.277344 C 15.519531 12.332031 15.5 12.390625 15.488281 12.449219 C 15.460938 12.566406 15.441406 12.6875 15.453125 12.824219 C 15.351562 12.882812 15.402344 12.636719 15.332031 12.695312 C 15.324219 12.757812 15.320312 12.941406 15.25 13.003906 C 15.183594 13.0625 15.226562 12.878906 15.234375 12.753906 C 15.175781 12.9375 15.144531 13.085938 15.132812 13.203125 C 15.128906 13.324219 15.136719 13.414062 15.164062 13.488281 C 15.210938 13.628906 15.3125 13.691406 15.40625 13.746094 C 15.304688 13.917969 15.25 14.050781 15.222656 14.179688 C 15.199219 14.308594 15.210938 14.429688 15.25 14.582031 C 15.199219 14.640625 15.144531 14.71875 15.113281 14.726562 C 15.078125 14.730469 15.0625 14.664062 15.109375 14.433594 C 15.097656 14.464844 15.085938 14.511719 15.066406 14.574219 C 15.046875 14.632812 15.027344 14.707031 15.007812 14.785156 C 14.988281 14.863281 14.964844 14.953125 14.941406 15.042969 C 14.921875 15.136719 14.902344 15.226562 14.882812 15.320312 C 14.84375 15.503906 14.820312 15.683594 14.8125 15.816406 C 14.804688 15.953125 14.816406 16.046875 14.863281 16.058594 C 14.808594 16.136719 14.796875 16.425781 14.8125 16.496094 C 14.792969 16.640625 14.777344 16.753906 14.761719 16.851562 C 14.75 16.945312 14.742188 17.027344 14.734375 17.109375 C 14.726562 17.1875 14.71875 17.265625 14.710938 17.363281 C 14.707031 17.457031 14.703125 17.570312 14.695312 17.714844 L 14.734375 17.554688 C 14.832031 17.675781 14.835938 17.796875 14.820312 17.945312 C 14.804688 18.09375 14.761719 18.273438 14.773438 18.507812 L 14.75 18.496094 C 14.707031 18.761719 14.695312 18.925781 14.695312 19.039062 C 14.695312 19.148438 14.703125 19.207031 14.714844 19.265625 C 14.726562 19.320312 14.734375 19.378906 14.734375 19.488281 C 14.734375 19.539062 14.730469 19.605469 14.722656 19.695312 C 14.714844 19.785156 14.710938 19.890625 14.691406 20.027344 L 14.820312 19.960938 C 14.894531 19.980469 14.921875 20.046875 14.929688 20.148438 C 14.9375 20.25 14.921875 20.386719 14.902344 20.539062 C 14.886719 20.691406 14.867188 20.859375 14.867188 21.027344 C 14.867188 21.195312 14.882812 21.363281 14.929688 21.507812 C 14.941406 21.433594 14.957031 21.355469 14.972656 21.277344 C 15.042969 21.4375 14.988281 21.679688 14.914062 21.933594 C 14.847656 22.183594 14.761719 22.445312 14.78125 22.613281 C 14.777344 22.695312 14.71875 22.507812 14.679688 22.410156 C 14.691406 22.871094 14.746094 22.886719 14.8125 22.871094 C 14.878906 22.855469 14.964844 22.808594 15.0625 23.125 C 15.03125 23.195312 14.964844 23.175781 14.917969 23.1875 C 14.890625 23.191406 14.871094 23.210938 14.867188 23.25 C 14.859375 23.292969 14.863281 23.363281 14.886719 23.472656 C 14.886719 23.53125 14.921875 23.636719 14.980469 23.769531 C 15.042969 23.902344 15.125 24.058594 15.210938 24.230469 C 15.253906 24.3125 15.300781 24.398438 15.339844 24.488281 C 15.363281 24.535156 15.382812 24.578125 15.402344 24.621094 C 15.421875 24.667969 15.441406 24.710938 15.460938 24.757812 C 15.496094 24.84375 15.527344 24.933594 15.546875 25.019531 C 15.574219 25.105469 15.589844 25.1875 15.597656 25.265625 C 15.617188 25.113281 15.632812 24.964844 15.796875 25.234375 C 15.824219 25.289062 15.84375 25.351562 15.859375 25.417969 C 15.882812 25.480469 15.902344 25.550781 15.917969 25.621094 C 15.9375 25.695312 15.953125 25.773438 15.972656 25.847656 C 15.992188 25.925781 16.015625 26 16.035156 26.078125 C 16.058594 26.152344 16.082031 26.230469 16.105469 26.304688 C 16.132812 26.375 16.164062 26.441406 16.195312 26.507812 C 16.226562 26.574219 16.261719 26.632812 16.304688 26.683594 C 16.347656 26.734375 16.390625 26.777344 16.4375 26.8125 C 16.449219 26.878906 16.441406 26.90625 16.425781 26.914062 C 16.453125 26.953125 16.484375 27 16.515625 27.046875 C 16.546875 27.09375 16.582031 27.144531 16.621094 27.203125 C 16.695312 27.308594 16.773438 27.429688 16.855469 27.542969 C 17.011719 27.765625 17.183594 27.96875 17.289062 28.027344 C 17.234375 28.15625 17.292969 28.335938 17.410156 28.53125 C 17.527344 28.722656 17.699219 28.933594 17.871094 29.128906 C 17.957031 29.226562 18.042969 29.320312 18.125 29.410156 C 18.203125 29.5 18.269531 29.582031 18.324219 29.652344 C 18.433594 29.800781 18.476562 29.917969 18.390625 29.976562 C 18.449219 30.050781 18.511719 30.121094 18.570312 30.191406 C 18.632812 30.261719 18.6875 30.332031 18.753906 30.402344 C 18.875 30.542969 19 30.683594 19.125 30.820312 L 19.074219 30.824219 C 19.53125 31.378906 19.785156 31.484375 20.03125 31.589844 C 20.128906 31.722656 20.015625 31.667969 19.992188 31.671875 C 20.078125 31.773438 20.152344 31.859375 20.222656 31.9375 C 20.292969 32.015625 20.359375 32.082031 20.417969 32.140625 C 20.535156 32.261719 20.640625 32.355469 20.746094 32.433594 C 20.800781 32.472656 20.851562 32.511719 20.910156 32.546875 C 20.96875 32.582031 21.027344 32.617188 21.09375 32.65625 C 21.160156 32.691406 21.230469 32.730469 21.316406 32.769531 C 21.398438 32.808594 21.488281 32.851562 21.585938 32.898438 L 21.570312 33.0625 C 21.628906 33.082031 21.726562 33.160156 21.851562 33.269531 C 21.910156 33.328125 21.984375 33.390625 22.0625 33.460938 C 22.101562 33.496094 22.140625 33.53125 22.183594 33.570312 C 22.222656 33.609375 22.269531 33.644531 22.3125 33.683594 C 22.675781 33.996094 23.144531 34.335938 23.628906 34.527344 C 23.613281 34.535156 23.582031 34.546875 23.5 34.523438 C 23.566406 34.550781 23.636719 34.582031 23.703125 34.613281 C 23.769531 34.648438 23.839844 34.683594 23.90625 34.71875 C 23.972656 34.757812 24.042969 34.796875 24.109375 34.835938 C 24.179688 34.875 24.246094 34.917969 24.316406 34.957031 C 24.382812 35 24.453125 35.042969 24.519531 35.085938 C 24.585938 35.125 24.65625 35.167969 24.722656 35.210938 C 24.789062 35.25 24.855469 35.292969 24.925781 35.332031 C 24.992188 35.371094 25.058594 35.414062 25.121094 35.449219 C 25.253906 35.527344 25.378906 35.59375 25.503906 35.652344 C 25.566406 35.683594 25.625 35.710938 25.683594 35.734375 C 25.742188 35.753906 25.796875 35.773438 25.855469 35.792969 C 25.96875 35.824219 26.070312 35.847656 26.164062 35.847656 C 26.253906 35.847656 26.335938 35.832031 26.410156 35.789062 L 26.597656 35.828125 L 26.789062 35.863281 C 26.914062 35.886719 27.035156 35.910156 27.164062 35.925781 C 27.050781 35.886719 26.96875 35.847656 26.914062 35.820312 C 26.855469 35.789062 26.824219 35.769531 26.808594 35.75 C 26.78125 35.714844 26.824219 35.703125 26.886719 35.6875 C 27.007812 35.667969 27.195312 35.667969 27.023438 35.5625 C 27.070312 35.574219 27.117188 35.589844 27.164062 35.609375 C 27.210938 35.628906 27.261719 35.648438 27.308594 35.667969 C 27.398438 35.714844 27.488281 35.761719 27.542969 35.804688 C 27.605469 35.847656 27.640625 35.882812 27.628906 35.902344 C 27.621094 35.921875 27.570312 35.921875 27.453125 35.890625 L 27.394531 35.84375 C 27.332031 35.890625 27.371094 35.945312 27.464844 36 C 27.558594 36.054688 27.703125 36.105469 27.855469 36.160156 C 28.011719 36.210938 28.167969 36.253906 28.285156 36.296875 C 28.339844 36.320312 28.390625 36.34375 28.421875 36.363281 C 28.453125 36.382812 28.464844 36.402344 28.460938 36.421875 C 28.929688 36.535156 29.398438 36.636719 29.863281 36.730469 C 29.980469 36.753906 30.097656 36.777344 30.214844 36.796875 C 30.332031 36.816406 30.449219 36.839844 30.566406 36.859375 C 30.683594 36.875 30.800781 36.890625 30.917969 36.910156 C 30.972656 36.921875 31.035156 36.929688 31.09375 36.9375 C 31.148438 36.941406 31.210938 36.953125 31.269531 36.960938 C 31.324219 36.964844 31.386719 36.976562 31.445312 36.980469 C 31.5 36.988281 31.5625 36.996094 31.617188 37 C 31.738281 37.011719 31.851562 37.023438 31.96875 37.035156 C 32.082031 37.042969 32.199219 37.054688 32.316406 37.0625 C 32.371094 37.0625 32.429688 37.070312 32.488281 37.074219 C 32.546875 37.078125 32.605469 37.078125 32.664062 37.078125 C 33.125 37.105469 33.585938 37.101562 34.042969 37.078125 C 33.96875 37.011719 33.894531 36.953125 33.820312 36.890625 C 33.925781 36.890625 34.03125 36.878906 34.132812 36.875 C 34.238281 36.871094 34.34375 36.867188 34.445312 36.859375 C 34.53125 36.875 34.589844 36.910156 34.570312 36.945312 C 34.5625 36.960938 34.53125 36.980469 34.476562 36.992188 C 34.425781 37.011719 34.34375 37.023438 34.230469 37.027344 C 34.355469 37.078125 34.539062 37.035156 34.699219 36.976562 C 34.738281 36.960938 34.773438 36.949219 34.808594 36.933594 C 34.84375 36.917969 34.875 36.902344 34.898438 36.886719 C 34.949219 36.859375 34.984375 36.832031 34.984375 36.820312 C 35.207031 36.816406 35.296875 36.828125 35.3125 36.851562 C 35.332031 36.875 35.273438 36.910156 35.191406 36.941406 C 35.035156 37.011719 34.800781 37.078125 34.9375 37.0625 L 35.304688 37.007812 L 35.21875 36.992188 C 35.363281 36.9375 35.4375 36.878906 35.542969 36.835938 C 35.597656 36.8125 35.660156 36.789062 35.738281 36.773438 C 35.820312 36.75 35.921875 36.730469 36.054688 36.710938 C 36.226562 36.703125 36.273438 36.722656 36.296875 36.746094 C 36.320312 36.769531 36.316406 36.792969 36.382812 36.785156 C 36.386719 36.796875 36.429688 36.796875 36.585938 36.75 C 36.847656 36.703125 37.109375 36.652344 37.371094 36.589844 C 37.253906 36.566406 37.140625 36.539062 37.023438 36.511719 C 37.1875 36.433594 37.371094 36.390625 37.457031 36.359375 C 37.503906 36.34375 37.527344 36.328125 37.511719 36.3125 C 37.5 36.296875 37.449219 36.28125 37.351562 36.257812 C 37.386719 36.265625 37.429688 36.273438 37.476562 36.273438 C 37.527344 36.273438 37.582031 36.273438 37.640625 36.265625 C 37.757812 36.257812 37.898438 36.238281 38.050781 36.203125 C 38.199219 36.171875 38.363281 36.132812 38.53125 36.082031 C 38.613281 36.058594 38.699219 36.03125 38.78125 36.007812 C 38.867188 35.976562 38.953125 35.949219 39.035156 35.921875 C 39.375 35.804688 39.695312 35.667969 39.957031 35.5625 C 40.089844 35.507812 40.199219 35.457031 40.292969 35.421875 C 40.386719 35.386719 40.457031 35.363281 40.496094 35.355469 C 40.59375 35.277344 40.699219 35.207031 40.804688 35.140625 C 40.910156 35.070312 41.015625 35.003906 41.128906 34.941406 C 41.351562 34.816406 41.59375 34.695312 41.859375 34.550781 C 41.785156 34.574219 41.710938 34.554688 41.707031 34.503906 C 41.707031 34.476562 41.722656 34.445312 41.769531 34.402344 C 41.792969 34.378906 41.824219 34.359375 41.863281 34.332031 C 41.902344 34.308594 41.949219 34.277344 42.007812 34.25 C 42.011719 34.351562 42.070312 34.382812 42.164062 34.371094 C 42.253906 34.359375 42.382812 34.304688 42.523438 34.230469 C 42.59375 34.195312 42.667969 34.15625 42.742188 34.121094 C 42.820312 34.082031 42.894531 34.039062 42.96875 34.003906 C 43.042969 33.96875 43.121094 33.941406 43.191406 33.917969 C 43.261719 33.894531 43.328125 33.878906 43.390625 33.875 C 43.289062 33.890625 43.3125 33.847656 43.394531 33.769531 C 43.4375 33.730469 43.492188 33.6875 43.554688 33.636719 C 43.613281 33.585938 43.683594 33.53125 43.75 33.476562 C 43.886719 33.371094 44.007812 33.257812 44.0625 33.1875 C 44.113281 33.117188 44.09375 33.085938 43.941406 33.121094 C 44.117188 33.003906 44.148438 33.027344 44.167969 33.066406 C 44.1875 33.101562 44.203125 33.152344 44.359375 33.085938 C 44.71875 32.710938 45.164062 32.355469 45.625 31.96875 C 46.085938 31.582031 46.554688 31.152344 46.957031 30.652344 C 46.929688 30.601562 46.738281 30.71875 46.859375 30.464844 C 47.066406 30.347656 47.269531 30.222656 47.476562 30.09375 C 47.542969 29.988281 47.523438 29.898438 47.539062 29.804688 C 47.546875 29.753906 47.5625 29.707031 47.601562 29.652344 C 47.640625 29.601562 47.707031 29.539062 47.808594 29.472656 C 47.738281 29.5 47.628906 29.542969 47.714844 29.398438 C 48.128906 28.933594 48.492188 28.410156 48.808594 27.863281 C 49.128906 27.3125 49.40625 26.738281 49.65625 26.148438 C 49.90625 25.5625 50.128906 24.964844 50.355469 24.363281 C 50.578125 23.765625 50.796875 23.164062 51.035156 22.5625 C 50.871094 22.882812 50.914062 22.652344 50.964844 22.394531 C 50.90625 22.558594 50.847656 22.367188 50.773438 22.386719 C 50.839844 22.222656 50.902344 22.054688 50.964844 21.882812 L 51.054688 21.628906 C 51.082031 21.542969 51.113281 21.460938 51.140625 21.375 C 51.101562 21.324219 51.089844 21.222656 51.09375 21.105469 C 51.09375 21.078125 51.097656 21.046875 51.101562 21.015625 C 51.105469 20.984375 51.105469 20.949219 51.105469 20.914062 C 51.113281 20.847656 51.121094 20.78125 51.125 20.710938 C 51.132812 20.644531 51.140625 20.574219 51.144531 20.511719 C 51.148438 20.449219 51.152344 20.386719 51.152344 20.335938 C 51.148438 20.226562 51.136719 20.148438 51.09375 20.117188 L 51.097656 20.449219 C 51.015625 20.21875 50.886719 20.363281 50.746094 20.550781 C 50.601562 20.738281 50.445312 20.960938 50.320312 20.914062 C 50.359375 21.039062 50.347656 21.175781 50.3125 21.324219 C 50.273438 21.476562 50.203125 21.632812 50.140625 21.796875 C 50.105469 21.882812 50.070312 21.96875 50.042969 22.054688 C 50.023438 22.101562 50.011719 22.144531 50 22.1875 C 49.988281 22.234375 49.972656 22.277344 49.960938 22.324219 C 49.9375 22.417969 49.921875 22.511719 49.921875 22.613281 C 49.914062 22.710938 49.917969 22.8125 49.9375 22.917969 C 49.84375 23.074219 49.886719 22.753906 49.808594 22.828125 C 49.839844 22.9375 49.851562 23.050781 49.824219 23.191406 C 49.8125 23.261719 49.792969 23.335938 49.765625 23.417969 C 49.742188 23.503906 49.703125 23.59375 49.660156 23.699219 L 49.648438 23.640625 C 49.625 23.71875 49.605469 23.785156 49.589844 23.855469 C 49.566406 23.925781 49.542969 23.992188 49.523438 24.058594 C 49.503906 24.121094 49.484375 24.183594 49.460938 24.246094 C 49.441406 24.304688 49.414062 24.363281 49.394531 24.421875 C 49.371094 24.480469 49.347656 24.535156 49.328125 24.589844 C 49.304688 24.644531 49.28125 24.699219 49.257812 24.753906 C 49.207031 24.859375 49.160156 24.960938 49.113281 25.066406 C 48.910156 25.484375 48.679688 25.90625 48.332031 26.507812 L 48.492188 26.472656 C 48.421875 26.605469 48.363281 26.675781 48.316406 26.730469 C 48.265625 26.785156 48.226562 26.824219 48.179688 26.878906 C 48.1875 27.074219 48.289062 26.894531 48.394531 26.707031 C 48.449219 26.613281 48.496094 26.515625 48.542969 26.46875 C 48.582031 26.421875 48.617188 26.421875 48.628906 26.511719 C 48.425781 26.632812 48.175781 27.101562 47.910156 27.535156 C 47.644531 27.972656 47.359375 28.378906 47.15625 28.402344 C 46.890625 28.777344 47.359375 28.375 47.09375 28.75 L 46.957031 28.800781 L 46.972656 28.957031 C 46.921875 29.015625 46.875 29.0625 46.832031 29.101562 C 46.785156 29.140625 46.746094 29.164062 46.707031 29.1875 C 46.628906 29.226562 46.574219 29.230469 46.539062 29.214844 C 46.589844 29.160156 46.652344 29.039062 46.695312 28.972656 C 46.613281 29.039062 46.539062 29.125 46.460938 29.21875 C 46.382812 29.3125 46.308594 29.414062 46.238281 29.515625 C 46.167969 29.617188 46.101562 29.707031 46.050781 29.78125 C 45.996094 29.855469 45.949219 29.90625 45.925781 29.925781 C 46.035156 29.824219 46.140625 29.726562 46.246094 29.625 C 45.878906 30.128906 45.398438 30.636719 44.902344 31.113281 C 44.84375 31.175781 44.777344 31.234375 44.714844 31.292969 C 44.652344 31.351562 44.589844 31.410156 44.53125 31.46875 C 44.464844 31.527344 44.40625 31.585938 44.34375 31.640625 C 44.28125 31.699219 44.222656 31.757812 44.15625 31.8125 C 44.03125 31.925781 43.914062 32.039062 43.796875 32.148438 C 43.738281 32.203125 43.679688 32.261719 43.625 32.316406 C 43.566406 32.371094 43.511719 32.421875 43.457031 32.476562 L 43.570312 32.472656 C 43.488281 32.554688 43.414062 32.621094 43.347656 32.675781 C 43.28125 32.730469 43.222656 32.777344 43.171875 32.816406 C 43.117188 32.855469 43.070312 32.886719 43.023438 32.914062 C 42.980469 32.9375 42.933594 32.964844 42.890625 32.984375 C 42.710938 33.078125 42.523438 33.171875 42.105469 33.464844 L 42.128906 33.433594 C 42.058594 33.511719 41.96875 33.597656 41.863281 33.675781 C 41.8125 33.714844 41.753906 33.75 41.695312 33.789062 C 41.667969 33.808594 41.640625 33.828125 41.605469 33.84375 C 41.578125 33.859375 41.546875 33.878906 41.515625 33.894531 C 41.609375 33.796875 41.484375 33.828125 41.371094 33.851562 C 41.257812 33.875 41.152344 33.890625 41.277344 33.777344 C 41.226562 33.816406 41.183594 33.847656 41.136719 33.878906 C 41.097656 33.90625 41.058594 33.933594 41.023438 33.957031 C 40.953125 34.003906 40.902344 34.046875 40.859375 34.078125 C 40.777344 34.144531 40.734375 34.175781 40.707031 34.214844 C 40.679688 34.25 40.664062 34.28125 40.621094 34.339844 C 40.578125 34.394531 40.515625 34.476562 40.386719 34.597656 L 40.199219 34.566406 C 40.117188 34.660156 40.074219 34.714844 39.992188 34.777344 C 39.914062 34.839844 39.796875 34.914062 39.5625 35.023438 C 39.742188 34.902344 39.652344 34.898438 39.566406 34.886719 C 39.480469 34.875 39.398438 34.855469 39.59375 34.714844 C 39.460938 34.742188 39.339844 34.773438 39.222656 34.804688 C 39.113281 34.835938 39.007812 34.875 38.910156 34.914062 C 38.816406 34.953125 38.726562 34.988281 38.644531 35.03125 C 38.558594 35.070312 38.484375 35.109375 38.410156 35.144531 C 38.335938 35.179688 38.265625 35.214844 38.199219 35.242188 C 38.132812 35.273438 38.066406 35.296875 38 35.3125 C 37.871094 35.34375 37.738281 35.34375 37.601562 35.300781 C 37.503906 35.398438 37.511719 35.445312 37.578125 35.457031 C 37.609375 35.464844 37.65625 35.460938 37.710938 35.453125 C 37.765625 35.445312 37.824219 35.429688 37.890625 35.414062 C 37.953125 35.398438 38.015625 35.378906 38.074219 35.363281 C 38.136719 35.347656 38.1875 35.328125 38.226562 35.316406 C 38.3125 35.292969 38.347656 35.28125 38.285156 35.320312 C 38.410156 35.328125 38.328125 35.410156 38.171875 35.496094 C 38.097656 35.542969 37.996094 35.585938 37.898438 35.625 C 37.851562 35.644531 37.800781 35.660156 37.753906 35.675781 C 37.703125 35.6875 37.65625 35.703125 37.613281 35.707031 C 37.53125 35.730469 37.445312 35.726562 37.355469 35.71875 C 37.265625 35.707031 37.167969 35.683594 37.054688 35.667969 C 36.996094 35.65625 36.933594 35.652344 36.871094 35.644531 C 36.808594 35.636719 36.734375 35.632812 36.660156 35.632812 C 36.585938 35.632812 36.5 35.636719 36.410156 35.648438 C 36.324219 35.65625 36.226562 35.667969 36.121094 35.6875 C 36.203125 35.671875 36.207031 35.652344 36.289062 35.636719 C 36.125 35.632812 35.976562 35.6875 35.816406 35.730469 C 35.734375 35.753906 35.652344 35.773438 35.5625 35.785156 C 35.472656 35.796875 35.382812 35.800781 35.277344 35.785156 C 35.230469 35.835938 35.175781 35.863281 35.117188 35.878906 C 35.058594 35.894531 35 35.90625 34.949219 35.910156 C 34.839844 35.925781 34.753906 35.945312 34.734375 36.058594 L 35.125 35.988281 L 35.515625 35.90625 C 35.40625 35.9375 35.300781 35.976562 35.191406 36.023438 C 35.082031 36.070312 34.964844 36.113281 34.84375 36.160156 C 34.71875 36.203125 34.582031 36.234375 34.429688 36.253906 C 34.28125 36.277344 34.109375 36.277344 33.921875 36.261719 C 33.980469 36.210938 34.199219 36.144531 34.34375 36.097656 C 34.234375 36.074219 34.128906 36.09375 34.023438 36.109375 C 33.917969 36.125 33.816406 36.144531 33.699219 36.113281 C 33.710938 36.058594 33.78125 36.027344 33.878906 36.003906 C 33.976562 35.980469 34.109375 35.96875 34.253906 35.957031 C 34.398438 35.941406 34.558594 35.921875 34.707031 35.902344 C 34.859375 35.871094 35 35.839844 35.113281 35.78125 C 35.050781 35.765625 34.96875 35.769531 34.878906 35.789062 C 34.789062 35.804688 34.695312 35.835938 34.613281 35.851562 C 34.449219 35.886719 34.339844 35.898438 34.449219 35.769531 C 34.292969 35.9375 34.078125 35.941406 33.835938 35.9375 C 33.714844 35.933594 33.589844 35.925781 33.453125 35.9375 C 33.386719 35.941406 33.320312 35.949219 33.25 35.964844 C 33.179688 35.976562 33.109375 36 33.035156 36.027344 L 33.074219 35.898438 C 32.980469 35.921875 32.792969 35.980469 32.625 35.972656 L 32.929688 35.808594 C 32.8125 35.84375 32.699219 35.855469 32.585938 35.847656 C 32.472656 35.84375 32.363281 35.820312 32.25 35.796875 C 32.195312 35.785156 32.140625 35.769531 32.085938 35.761719 C 32.03125 35.75 31.976562 35.734375 31.921875 35.726562 C 31.8125 35.707031 31.703125 35.699219 31.589844 35.710938 C 32.054688 35.738281 32.105469 35.78125 32.089844 35.832031 C 32.070312 35.882812 31.984375 35.941406 32.179688 35.996094 C 32.035156 36.015625 31.914062 36.015625 31.8125 36.011719 C 31.710938 36.007812 31.632812 36 31.566406 35.980469 C 31.425781 35.945312 31.34375 35.890625 31.257812 35.835938 C 31.171875 35.777344 31.078125 35.714844 30.933594 35.660156 C 30.78125 35.609375 30.578125 35.558594 30.257812 35.527344 C 30.347656 35.53125 30.503906 35.570312 30.605469 35.617188 C 30.710938 35.660156 30.757812 35.703125 30.617188 35.71875 C 30.554688 35.703125 30.492188 35.683594 30.425781 35.667969 C 30.359375 35.648438 30.292969 35.628906 30.230469 35.605469 C 30.105469 35.5625 29.996094 35.511719 29.925781 35.464844 C 29.503906 35.402344 29.527344 35.441406 29.613281 35.496094 C 29.699219 35.554688 29.84375 35.632812 29.65625 35.632812 C 29.527344 35.53125 29.421875 35.527344 29.300781 35.542969 C 29.238281 35.550781 29.171875 35.566406 29.097656 35.574219 C 29.058594 35.582031 29.019531 35.582031 28.980469 35.582031 C 28.9375 35.582031 28.894531 35.582031 28.847656 35.578125 L 28.875 35.445312 C 28.757812 35.410156 28.664062 35.378906 28.589844 35.363281 C 28.515625 35.34375 28.464844 35.339844 28.417969 35.335938 C 28.332031 35.332031 28.292969 35.359375 28.257812 35.382812 C 28.222656 35.410156 28.191406 35.433594 28.117188 35.433594 C 28.046875 35.429688 27.925781 35.398438 27.71875 35.3125 L 28.132812 35.242188 C 27.980469 35.210938 27.828125 35.1875 27.675781 35.15625 C 27.71875 35.117188 27.765625 35.078125 27.808594 35.039062 C 27.679688 35.03125 27.578125 35.015625 27.488281 35 C 27.441406 34.988281 27.398438 34.984375 27.355469 34.972656 C 27.3125 34.960938 27.277344 34.949219 27.238281 34.9375 C 27.160156 34.910156 27.085938 34.878906 27 34.84375 C 26.917969 34.804688 26.824219 34.761719 26.71875 34.707031 C 26.753906 34.769531 26.71875 34.820312 26.621094 34.835938 C 26.523438 34.851562 26.367188 34.832031 26.164062 34.75 C 26.101562 34.703125 26.082031 34.675781 26.082031 34.660156 C 26.082031 34.644531 26.09375 34.632812 26.101562 34.628906 C 26.109375 34.613281 26.078125 34.589844 25.792969 34.476562 C 25.871094 34.464844 25.957031 34.453125 26.046875 34.46875 C 26.09375 34.476562 26.136719 34.492188 26.183594 34.519531 C 26.230469 34.546875 26.28125 34.582031 26.332031 34.636719 C 26.371094 34.609375 26.492188 34.613281 26.53125 34.582031 C 26.402344 34.480469 26.21875 34.40625 26.046875 34.332031 C 25.960938 34.296875 25.875 34.269531 25.796875 34.238281 C 25.722656 34.210938 25.65625 34.1875 25.605469 34.160156 C 25.683594 34.203125 25.769531 34.25 25.8125 34.292969 C 25.664062 34.257812 25.519531 34.222656 25.371094 34.1875 C 25.222656 34.148438 25.078125 34.109375 24.929688 34.070312 C 24.828125 33.957031 24.945312 33.976562 25.0625 33.992188 C 24.976562 33.957031 24.902344 33.9375 24.816406 33.914062 C 24.730469 33.886719 24.632812 33.859375 24.515625 33.796875 C 24.628906 33.738281 24.664062 33.636719 25.019531 33.765625 C 24.886719 33.714844 24.75 33.671875 24.621094 33.617188 C 24.488281 33.566406 24.355469 33.515625 24.226562 33.460938 C 24.210938 33.425781 24.136719 33.34375 24.078125 33.273438 C 24.019531 33.203125 23.980469 33.140625 24.035156 33.152344 C 23.949219 33.078125 23.835938 33.015625 23.707031 32.953125 C 23.582031 32.890625 23.445312 32.832031 23.304688 32.765625 C 23.027344 32.636719 22.730469 32.488281 22.511719 32.265625 C 22.472656 32.261719 22.410156 32.238281 22.292969 32.167969 C 22.183594 32.074219 22.082031 31.976562 21.980469 31.878906 C 21.882812 31.777344 21.785156 31.671875 21.683594 31.574219 C 21.578125 31.472656 21.472656 31.375 21.351562 31.277344 C 21.292969 31.226562 21.230469 31.179688 21.164062 31.128906 C 21.132812 31.105469 21.097656 31.082031 21.0625 31.0625 C 21.027344 31.039062 20.992188 31.011719 20.953125 30.992188 L 20.882812 30.785156 L 20.847656 30.683594 L 20.8125 30.578125 C 20.609375 30.402344 20.65625 30.535156 20.671875 30.644531 C 20.6875 30.753906 20.671875 30.832031 20.328125 30.53125 C 20.085938 30.316406 20.078125 30.246094 20.113281 30.199219 C 20.148438 30.15625 20.230469 30.144531 20.175781 30.042969 C 20.105469 30 20.019531 29.949219 19.925781 29.890625 C 19.835938 29.828125 19.738281 29.757812 19.640625 29.675781 C 19.445312 29.511719 19.257812 29.292969 19.144531 29.007812 C 19.21875 29.074219 19.273438 29.140625 19.324219 29.210938 C 19.378906 29.316406 19.429688 29.382812 19.488281 29.449219 Z M 16.324219 23.605469 C 16.355469 23.664062 16.410156 23.75 16.453125 23.835938 C 16.496094 23.917969 16.523438 24 16.503906 24.058594 C 16.40625 24.007812 16.367188 23.953125 16.347656 23.882812 C 16.332031 23.804688 16.335938 23.71875 16.324219 23.605469 Z M 16.109375 13.472656 C 16.121094 13.582031 16.058594 13.71875 15.960938 13.871094 C 15.988281 13.746094 16.03125 13.613281 16.109375 13.472656 Z M 39.828125 1.613281 C 39.820312 1.613281 39.816406 1.613281 39.8125 1.613281 C 39.742188 1.570312 39.699219 1.546875 39.671875 1.53125 C 39.648438 1.515625 39.636719 1.511719 39.648438 1.515625 C 39.660156 1.519531 39.730469 1.558594 39.828125 1.613281 Z M 40.402344 1.914062 C 40.46875 1.925781 40.472656 1.90625 40.457031 1.878906 C 40.402344 1.890625 40.265625 1.832031 40.117188 1.757812 C 40.144531 1.808594 40.210938 1.867188 40.402344 1.914062 Z M 36.433594 36.746094 L 36.304688 36.738281 C 36.574219 36.644531 36.503906 36.691406 36.433594 36.746094 Z M 36.433594 36.746094 " fill-opacity="1" fill-rule="nonzero"/></g><path fill="#9ea8c6" d="M 15.972656 14.648438 C 15.941406 14.679688 15.914062 14.683594 15.890625 14.6875 C 15.898438 14.742188 15.925781 14.746094 15.972656 14.648438 Z M 15.972656 14.648438 " fill-opacity="1" fill-rule="nonzero"/><path fill="#9ea8c6" d="M 22.503906 32.285156 C 22.503906 32.292969 22.511719 32.296875 22.519531 32.300781 C 22.53125 32.300781 22.539062 32.296875 22.550781 32.292969 Z M 22.503906 32.285156 " fill-opacity="1" fill-rule="nonzero"/><path fill="#9ea8c6" d="M 30.765625 1.597656 C 30.703125 1.59375 30.65625 1.589844 30.613281 1.585938 C 30.574219 1.578125 30.542969 1.570312 30.519531 1.5625 C 30.519531 1.578125 30.53125 1.589844 30.570312 1.597656 C 30.609375 1.605469 30.671875 1.605469 30.765625 1.597656 Z M 30.765625 1.597656 " fill-opacity="1" fill-rule="nonzero"/><path fill="#9ea8c6" d="M 43.507812 3.390625 C 43.386719 3.324219 43.265625 3.253906 43.140625 3.1875 C 43.316406 3.292969 43.359375 3.355469 43.429688 3.433594 C 43.441406 3.402344 43.402344 3.320312 43.507812 3.390625 Z M 43.507812 3.390625 " fill-opacity="1" fill-rule="nonzero"/><path fill="#9ea8c6" d="M 45.695312 6.289062 C 45.746094 6.320312 45.78125 6.375 45.835938 6.40625 L 45.867188 6.351562 C 45.691406 6.179688 45.535156 6.089844 45.695312 6.289062 Z M 45.695312 6.289062 " fill-opacity="1" fill-rule="nonzero"/><path fill="#9ea8c6" d="M 43.570312 3.96875 C 43.550781 4.023438 43.597656 4.082031 43.679688 4.144531 C 43.71875 4.175781 43.769531 4.207031 43.824219 4.242188 C 43.878906 4.277344 43.9375 4.316406 43.996094 4.355469 C 43.984375 4.34375 43.96875 4.335938 43.957031 4.324219 C 44.035156 4.289062 44.011719 4.234375 43.925781 4.171875 C 43.84375 4.105469 43.707031 4.039062 43.570312 3.96875 Z M 43.570312 3.96875 " fill-opacity="1" fill-rule="nonzero"/><path fill="#9ea8c6" d="M 44.050781 4.394531 C 44.125 4.445312 44.199219 4.496094 44.261719 4.550781 C 44.324219 4.523438 44.1875 4.472656 44.050781 4.394531 Z M 44.050781 4.394531 " fill-opacity="1" fill-rule="nonzero"/><path fill="#9ea8c6" d="M 41.171875 2.199219 C 41.285156 2.285156 41.3125 2.109375 41.363281 2.183594 C 41.46875 2.15625 41.238281 2.09375 41.078125 2.066406 C 40.996094 2.054688 40.929688 2.058594 40.929688 2.074219 C 40.933594 2.09375 40.996094 2.128906 41.171875 2.199219 Z M 41.171875 2.199219 " fill-opacity="1" fill-rule="nonzero"/><path fill="#9ea8c6" d="M 43.539062 4.402344 L 43.539062 4.230469 L 43.34375 4.226562 Z M 43.539062 4.402344 " fill-opacity="1" fill-rule="nonzero"/><path fill="#9ea8c6" d="M 41.726562 3.117188 C 41.789062 3.15625 41.851562 3.199219 41.914062 3.242188 L 42.097656 3.375 C 42.105469 3.351562 42.160156 3.367188 42.226562 3.394531 C 42.109375 3.324219 41.988281 3.242188 41.894531 3.1875 C 41.796875 3.128906 41.734375 3.097656 41.726562 3.117188 Z M 41.726562 3.117188 " fill-opacity="1" fill-rule="nonzero"/><path fill="#9ea8c6" d="M 42.226562 3.394531 C 42.347656 3.472656 42.464844 3.542969 42.546875 3.566406 C 42.480469 3.527344 42.335938 3.441406 42.226562 3.394531 Z M 42.226562 3.394531 " fill-opacity="1" fill-rule="nonzero"/><path fill="#9ea8c6" d="M 43.015625 4.082031 C 42.984375 4.050781 42.953125 4.015625 42.921875 3.984375 L 42.664062 3.800781 L 42.839844 3.941406 L 42.929688 4.011719 Z M 43.015625 4.082031 " fill-opacity="1" fill-rule="nonzero"/><path fill="#9ea8c6" d="M 37.246094 1.320312 L 37.003906 1.285156 C 36.917969 1.269531 36.839844 1.261719 36.757812 1.25 C 36.699219 1.285156 36.824219 1.34375 37.003906 1.367188 C 37.125 1.355469 37.304688 1.382812 37.246094 1.320312 Z M 37.246094 1.320312 " fill-opacity="1" fill-rule="nonzero"/><path fill="#9ea8c6" d="M 38.554688 2.089844 C 38.4375 2.023438 38.4375 1.992188 38.382812 1.925781 L 38.316406 2.082031 Z M 38.554688 2.089844 " fill-opacity="1" fill-rule="nonzero"/><path fill="#9ea8c6" d="M 37.195312 1.738281 C 37.164062 1.753906 36.988281 1.746094 36.890625 1.75 C 36.796875 1.757812 36.78125 1.769531 37.074219 1.835938 C 37.105469 1.820312 37.238281 1.828125 37.3125 1.828125 C 37.351562 1.828125 37.371094 1.820312 37.355469 1.808594 C 37.351562 1.800781 37.335938 1.792969 37.308594 1.777344 C 37.285156 1.769531 37.25 1.757812 37.195312 1.738281 Z M 37.195312 1.738281 " fill-opacity="1" fill-rule="nonzero"/><path fill="#9ea8c6" d="M 29.960938 1.242188 L 30.085938 1.21875 L 30.023438 0.945312 Z M 29.960938 1.242188 " fill-opacity="1" fill-rule="nonzero"/><path fill="#9ea8c6" d="M 24.257812 4.003906 C 24.320312 3.972656 24.367188 3.953125 24.40625 3.929688 C 24.445312 3.910156 24.472656 3.890625 24.488281 3.875 C 24.523438 3.84375 24.523438 3.816406 24.523438 3.792969 C 24.527344 3.746094 24.523438 3.699219 24.769531 3.613281 C 24.808594 3.554688 24.710938 3.585938 24.609375 3.625 C 24.511719 3.660156 24.417969 3.695312 24.460938 3.640625 C 24.394531 3.695312 24.335938 3.742188 24.285156 3.78125 C 24.238281 3.816406 24.199219 3.851562 24.175781 3.875 C 24.128906 3.929688 24.140625 3.960938 24.257812 4.003906 Z M 24.257812 4.003906 " fill-opacity="1" fill-rule="nonzero"/><path fill="#9ea8c6" d="M 24.460938 3.636719 C 24.503906 3.601562 24.546875 3.5625 24.59375 3.515625 C 24.515625 3.578125 24.480469 3.613281 24.460938 3.636719 Z M 24.460938 3.636719 " fill-opacity="1" fill-rule="nonzero"/><path fill="#9ea8c6" d="M 51.378906 20.710938 C 51.414062 20.589844 51.441406 20.460938 51.472656 20.335938 L 51.359375 20.574219 C 51.367188 20.621094 51.371094 20.664062 51.378906 20.710938 Z M 51.378906 20.710938 " fill-opacity="1" fill-rule="nonzero"/><path fill="#9ea8c6" d="M 51.234375 19.964844 L 51.417969 19.882812 L 51.273438 19.644531 C 51.273438 19.730469 51.28125 19.898438 51.234375 19.964844 Z M 51.234375 19.964844 " fill-opacity="1" fill-rule="nonzero"/><path fill="#9ea8c6" d="M 16.417969 22.5625 L 16.371094 22.546875 C 16.339844 22.609375 16.355469 22.6875 16.386719 22.851562 Z M 16.417969 22.5625 " fill-opacity="1" fill-rule="nonzero"/><path fill="#9ea8c6" d="M 18.027344 27.046875 L 17.992188 26.972656 L 17.925781 27.1875 Z M 18.027344 27.046875 " fill-opacity="1" fill-rule="nonzero"/><path fill="#9ea8c6" d="M 20.558594 30.152344 C 20.507812 30.089844 20.441406 30.03125 20.375 29.972656 C 20.308594 29.910156 20.246094 29.847656 20.191406 29.785156 C 20.449219 30.03125 20.445312 30.320312 20.558594 30.152344 Z M 20.558594 30.152344 " fill-opacity="1" fill-rule="nonzero"/><g clip-path="url(#fa9e18bc96)"><path fill="#9ea8c6" d="M 58.539062 15.441406 C 54.507812 15.441406 46.644531 16.582031 41.675781 16.582031 C 39.554688 16.582031 37.71875 16.316406 36.523438 15.757812 C 36.535156 15.515625 36.539062 15.273438 36.539062 15.027344 C 36.539062 13.453125 36.160156 12.453125 35.367188 12.453125 C 34.578125 12.453125 34.285156 13.300781 34.285156 13.898438 C 34.285156 14.917969 34.808594 15.671875 35.792969 16.203125 C 35.503906 18.742188 34.519531 21.265625 33.789062 21.265625 C 33.167969 21.265625 32.199219 18.664062 32.429688 15.679688 C 32.496094 14.808594 31.753906 14.335938 31.164062 14.46875 C 30.859375 14.53125 30.589844 14.761719 30.503906 15.175781 C 29.78125 16.003906 28.269531 17.210938 24.664062 17.210938 C 19.699219 17.210938 11.742188 15.664062 7.714844 15.664062 C 4.890625 15.664062 1.96875 16.070312 1.96875 17.726562 C 1.96875 18.230469 2.371094 18.492188 2.855469 18.492188 C 4.539062 18.492188 4.347656 16.667969 9.597656 16.667969 C 14.269531 16.667969 19.800781 17.871094 23.980469 17.871094 C 27.46875 17.871094 29.449219 16.933594 30.445312 16.035156 C 30.425781 17.054688 30.539062 18.214844 30.820312 19.265625 C 30.820312 19.253906 30.820312 19.25 30.820312 19.238281 C 31.273438 20.949219 32.171875 22.355469 33.65625 22.355469 C 34.953125 22.355469 36.175781 19.691406 36.476562 16.507812 C 37.84375 17.023438 39.820312 17.246094 42.28125 17.246094 C 46.460938 17.246094 51.988281 16.449219 56.664062 16.449219 C 61.914062 16.449219 61.722656 18.273438 63.40625 18.273438 C 63.886719 18.273438 64.289062 18.007812 64.289062 17.507812 C 64.28125 15.851562 61.363281 15.441406 58.539062 15.441406 Z M 35.863281 15.375 C 35.355469 14.992188 35.070312 14.523438 35.070312 13.953125 C 35.070312 13.402344 35.226562 13.140625 35.421875 13.140625 C 35.617188 13.140625 35.878906 13.757812 35.878906 14.792969 C 35.878906 14.984375 35.871094 15.175781 35.863281 15.375 Z M 35.863281 15.375 " fill-opacity="1" fill-rule="nonzero"/></g></svg>