<svg xmlns="http://www.w3.org/2000/svg" xmlns:xlink="http://www.w3.org/1999/xlink" width="250" zoomAndPan="magnify" viewBox="0 0 187.5 37.5" height="50" preserveAspectRatio="xMidYMid meet" version="1.0"><defs><g/><clipPath id="52651d01e6"><path d="M 156 0 L 186.019531 0 L 186.019531 30 L 156 30 Z M 156 0 " clip-rule="nonzero"/></clipPath></defs><g fill="#9ea8c6" fill-opacity="1"><g transform="translate(0.716179, 29.408265)"><g><path d="M 15.625 -30.8125 C 14.550781 -30.75 13.765625 -30.628906 13.265625 -30.453125 C 12.773438 -30.273438 12.441406 -29.929688 12.265625 -29.421875 C 12.085938 -28.910156 12 -28.085938 12 -26.953125 L 12 -4.203125 C 12 -3.253906 12.070312 -2.5625 12.21875 -2.125 C 12.375 -1.695312 12.632812 -1.40625 13 -1.25 C 13.375 -1.101562 13.984375 -1.03125 14.828125 -1.03125 L 17.015625 -1.03125 C 19.046875 -1.03125 20.800781 -1.941406 22.28125 -3.765625 C 23.757812 -5.585938 24.722656 -8.003906 25.171875 -11.015625 L 26.203125 -11.015625 C 26.109375 -10.003906 26.0625 -8.691406 26.0625 -7.078125 C 26.0625 -4.210938 26.164062 -1.851562 26.375 0 C 24.34375 -0.09375 20.925781 -0.140625 16.125 -0.140625 C 9.613281 -0.140625 4.742188 -0.09375 1.515625 0 L 1.515625 -0.890625 C 2.503906 -0.953125 3.226562 -1.070312 3.6875 -1.25 C 4.15625 -1.425781 4.46875 -1.769531 4.625 -2.28125 C 4.789062 -2.789062 4.875 -3.613281 4.875 -4.75 L 4.875 -26.953125 C 4.875 -28.085938 4.789062 -28.910156 4.625 -29.421875 C 4.46875 -29.929688 4.15625 -30.273438 3.6875 -30.453125 C 3.226562 -30.628906 2.503906 -30.75 1.515625 -30.8125 L 1.515625 -31.703125 C 3.046875 -31.617188 5.40625 -31.578125 8.59375 -31.578125 C 11.644531 -31.578125 13.988281 -31.617188 15.625 -31.703125 Z M 15.625 -30.8125 "/></g></g></g><g fill="#9ea8c6" fill-opacity="1"><g transform="translate(29.508238, 29.408265)"><g><path d="M 30.046875 -30.8125 C 29.066406 -30.65625 28.34375 -30.398438 27.875 -30.046875 C 27.414062 -29.691406 27.101562 -29.125 26.9375 -28.34375 C 26.769531 -27.570312 26.6875 -26.421875 26.6875 -24.890625 L 26.6875 -13.03125 C 26.6875 -8.757812 26.078125 -5.59375 24.859375 -3.53125 C 24.046875 -2.21875 22.878906 -1.195312 21.359375 -0.46875 C 19.835938 0.257812 17.972656 0.625 15.765625 0.625 C 12.296875 0.625 9.609375 -0.117188 7.703125 -1.609375 C 6.328125 -2.710938 5.398438 -4.109375 4.921875 -5.796875 C 4.441406 -7.484375 4.203125 -9.847656 4.203125 -12.890625 L 4.203125 -26.953125 C 4.203125 -28.085938 4.117188 -28.910156 3.953125 -29.421875 C 3.796875 -29.929688 3.484375 -30.273438 3.015625 -30.453125 C 2.554688 -30.628906 1.832031 -30.75 0.84375 -30.8125 L 0.84375 -31.703125 C 2.375 -31.617188 4.707031 -31.578125 7.84375 -31.578125 C 10.945312 -31.578125 13.316406 -31.617188 14.953125 -31.703125 L 14.953125 -30.8125 C 13.878906 -30.75 13.09375 -30.628906 12.59375 -30.453125 C 12.101562 -30.273438 11.769531 -29.929688 11.59375 -29.421875 C 11.414062 -28.910156 11.328125 -28.085938 11.328125 -26.953125 L 11.328125 -10.078125 C 11.328125 -6.941406 11.78125 -4.632812 12.6875 -3.15625 C 13.601562 -1.675781 15.210938 -0.9375 17.515625 -0.9375 C 20.492188 -0.9375 22.59375 -1.941406 23.8125 -3.953125 C 25.039062 -5.972656 25.65625 -8.832031 25.65625 -12.53125 L 25.65625 -24.359375 C 25.65625 -26.085938 25.550781 -27.367188 25.34375 -28.203125 C 25.132812 -29.046875 24.726562 -29.648438 24.125 -30.015625 C 23.53125 -30.390625 22.59375 -30.65625 21.3125 -30.8125 L 21.3125 -31.703125 C 22.445312 -31.617188 24.0625 -31.578125 26.15625 -31.578125 C 27.820312 -31.578125 29.117188 -31.617188 30.046875 -31.703125 Z M 30.046875 -30.8125 "/></g></g></g><g fill="#9ea8c6" fill-opacity="1"><g transform="translate(61.792955, 29.408265)"><g><path d="M 40.03125 -30.8125 C 39.019531 -30.75 38.289062 -30.628906 37.84375 -30.453125 C 37.394531 -30.273438 37.085938 -29.929688 36.921875 -29.421875 C 36.753906 -28.910156 36.671875 -28.085938 36.671875 -26.953125 L 36.671875 -4.75 C 36.671875 -3.613281 36.753906 -2.789062 36.921875 -2.28125 C 37.085938 -1.769531 37.398438 -1.425781 37.859375 -1.25 C 38.328125 -1.070312 39.050781 -0.953125 40.03125 -0.890625 L 40.03125 0 C 38.394531 -0.09375 36.050781 -0.140625 33 -0.140625 C 29.8125 -0.140625 27.453125 -0.09375 25.921875 0 L 25.921875 -0.890625 C 27.003906 -0.953125 27.789062 -1.070312 28.28125 -1.25 C 28.769531 -1.425781 29.101562 -1.769531 29.28125 -2.28125 C 29.46875 -2.789062 29.5625 -3.613281 29.5625 -4.75 L 29.5625 -28.171875 L 18.765625 0.046875 L 18.046875 0.046875 L 5.953125 -28.796875 L 5.953125 -7.34375 C 5.953125 -5.582031 6.039062 -4.289062 6.21875 -3.46875 C 6.40625 -2.644531 6.796875 -2.046875 7.390625 -1.671875 C 7.984375 -1.304688 8.953125 -1.046875 10.296875 -0.890625 L 10.296875 0 C 9.128906 -0.09375 7.519531 -0.140625 5.46875 -0.140625 C 3.820312 -0.140625 2.519531 -0.09375 1.5625 0 L 1.5625 -0.890625 C 2.550781 -1.046875 3.273438 -1.300781 3.734375 -1.65625 C 4.203125 -2.007812 4.515625 -2.570312 4.671875 -3.34375 C 4.835938 -4.125 4.921875 -5.28125 4.921875 -6.8125 L 4.921875 -26.953125 C 4.921875 -28.085938 4.835938 -28.910156 4.671875 -29.421875 C 4.515625 -29.929688 4.203125 -30.273438 3.734375 -30.453125 C 3.273438 -30.628906 2.550781 -30.75 1.5625 -30.8125 L 1.5625 -31.703125 C 2.519531 -31.617188 3.820312 -31.578125 5.46875 -31.578125 C 8.207031 -31.578125 10.5625 -31.617188 12.53125 -31.703125 L 21.578125 -9.890625 L 29.828125 -31.578125 L 33 -31.578125 C 36.050781 -31.578125 38.394531 -31.617188 40.03125 -31.703125 Z M 40.03125 -30.8125 "/></g></g></g><g fill="#9ea8c6" fill-opacity="1"><g transform="translate(104.734828, 29.408265)"><g><path d="M 15.359375 -30.8125 C 14.347656 -30.75 13.617188 -30.628906 13.171875 -30.453125 C 12.722656 -30.273438 12.414062 -29.929688 12.25 -29.421875 C 12.082031 -28.910156 12 -28.085938 12 -26.953125 L 12 -4.75 C 12 -3.613281 12.082031 -2.789062 12.25 -2.28125 C 12.414062 -1.769531 12.722656 -1.425781 13.171875 -1.25 C 13.617188 -1.070312 14.347656 -0.953125 15.359375 -0.890625 L 15.359375 0 C 13.742188 -0.09375 11.488281 -0.140625 8.59375 -0.140625 C 5.40625 -0.140625 3.046875 -0.09375 1.515625 0 L 1.515625 -0.890625 C 2.503906 -0.953125 3.226562 -1.070312 3.6875 -1.25 C 4.15625 -1.425781 4.46875 -1.769531 4.625 -2.28125 C 4.789062 -2.789062 4.875 -3.613281 4.875 -4.75 L 4.875 -26.953125 C 4.875 -28.085938 4.789062 -28.910156 4.625 -29.421875 C 4.46875 -29.929688 4.15625 -30.273438 3.6875 -30.453125 C 3.226562 -30.628906 2.503906 -30.75 1.515625 -30.8125 L 1.515625 -31.703125 C 3.046875 -31.617188 5.40625 -31.578125 8.59375 -31.578125 C 11.488281 -31.578125 13.742188 -31.617188 15.359375 -31.703125 Z M 15.359375 -30.8125 "/></g></g></g><g fill="#9ea8c6" fill-opacity="1"><g transform="translate(123.004161, 29.408265)"><g><path d="M 31.03125 -30.8125 C 30.050781 -30.65625 29.328125 -30.398438 28.859375 -30.046875 C 28.398438 -29.691406 28.085938 -29.125 27.921875 -28.34375 C 27.753906 -27.570312 27.671875 -26.421875 27.671875 -24.890625 L 27.671875 0.09375 L 26.59375 0.046875 L 25.390625 0.09375 L 5.953125 -24.546875 L 5.953125 -7.34375 C 5.953125 -5.582031 6.039062 -4.289062 6.21875 -3.46875 C 6.40625 -2.644531 6.796875 -2.046875 7.390625 -1.671875 C 7.984375 -1.304688 8.953125 -1.046875 10.296875 -0.890625 L 10.296875 0 C 9.128906 -0.09375 7.519531 -0.140625 5.46875 -0.140625 C 3.820312 -0.140625 2.519531 -0.09375 1.5625 0 L 1.5625 -0.890625 C 2.550781 -1.046875 3.273438 -1.300781 3.734375 -1.65625 C 4.203125 -2.007812 4.515625 -2.570312 4.671875 -3.34375 C 4.835938 -4.125 4.921875 -5.28125 4.921875 -6.8125 L 4.921875 -26.953125 C 4.921875 -28.085938 4.835938 -28.910156 4.671875 -29.421875 C 4.515625 -29.929688 4.203125 -30.273438 3.734375 -30.453125 C 3.273438 -30.628906 2.550781 -30.75 1.5625 -30.8125 L 1.5625 -31.703125 C 2.519531 -31.617188 3.820312 -31.578125 5.46875 -31.578125 C 6.957031 -31.578125 8.238281 -31.617188 9.3125 -31.703125 L 26.640625 -10.34375 L 26.640625 -24.359375 C 26.640625 -26.117188 26.550781 -27.410156 26.375 -28.234375 C 26.195312 -29.054688 25.804688 -29.648438 25.203125 -30.015625 C 24.609375 -30.390625 23.640625 -30.65625 22.296875 -30.8125 L 22.296875 -31.703125 C 23.460938 -31.617188 25.078125 -31.578125 27.140625 -31.578125 C 28.804688 -31.578125 30.101562 -31.617188 31.03125 -31.703125 Z M 31.03125 -30.8125 "/></g></g></g><g clip-path="url(#52651d01e6)"><g fill="#9ea8c6" fill-opacity="1"><g transform="translate(156.766572, 29.408265)"><g><path d="M 27.359375 -3.765625 C 27.742188 -2.773438 28.191406 -2.054688 28.703125 -1.609375 C 29.210938 -1.160156 29.707031 -0.921875 30.1875 -0.890625 L 30.1875 0 C 28.394531 -0.09375 26.125 -0.140625 23.375 -0.140625 C 20.332031 -0.140625 18.0625 -0.09375 16.5625 0 L 16.5625 -0.890625 C 17.695312 -0.953125 18.503906 -1.09375 18.984375 -1.3125 C 19.460938 -1.539062 19.703125 -1.9375 19.703125 -2.5 C 19.703125 -3.039062 19.523438 -3.757812 19.171875 -4.65625 L 16.484375 -12 L 6.71875 -12 L 5.546875 -8.90625 C 4.710938 -6.757812 4.296875 -5.101562 4.296875 -3.9375 C 4.296875 -2.832031 4.628906 -2.0625 5.296875 -1.625 C 5.972656 -1.195312 6.96875 -0.953125 8.28125 -0.890625 L 8.28125 0 C 6.25 -0.09375 4.398438 -0.140625 2.734375 -0.140625 C 1.359375 -0.140625 0.222656 -0.09375 -0.671875 0 L -0.671875 -0.890625 C 0.785156 -1.160156 2.066406 -2.726562 3.171875 -5.59375 L 13.390625 -31.796875 C 13.710938 -31.765625 14.234375 -31.75 14.953125 -31.75 C 15.671875 -31.75 16.179688 -31.765625 16.484375 -31.796875 Z M 16.171875 -12.890625 L 11.734375 -24.984375 L 7.078125 -12.890625 Z M 16.171875 -12.890625 "/></g></g></g></g></svg>