<svg xmlns="http://www.w3.org/2000/svg" xmlns:xlink="http://www.w3.org/1999/xlink" width="250" zoomAndPan="magnify" viewBox="0 0 187.5 37.5" height="50" preserveAspectRatio="xMidYMid meet" version="1.0"><defs><g/><clipPath id="6caa2b9755"><path d="M 174 7 L 186.019531 7 L 186.019531 28 L 174 28 Z M 174 7 " clip-rule="nonzero"/></clipPath></defs><g fill="#9ea8c6" fill-opacity="1"><g transform="translate(-0.320317, 27.940495)"><g><path d="M 19.234375 -10.46875 C 19.234375 -7.113281 18.304688 -4.53125 16.453125 -2.71875 C 14.609375 -0.90625 12.015625 0 8.671875 0 L 2.171875 0 L 2.171875 -20.09375 L 9.125 -20.09375 C 12.351562 -20.09375 14.84375 -19.269531 16.59375 -17.625 C 18.351562 -15.976562 19.234375 -13.59375 19.234375 -10.46875 Z M 13.59375 -10.28125 C 13.59375 -12.125 13.226562 -13.488281 12.5 -14.375 C 11.769531 -15.269531 10.664062 -15.71875 9.1875 -15.71875 L 7.609375 -15.71875 L 7.609375 -4.453125 L 8.8125 -4.453125 C 10.457031 -4.453125 11.664062 -4.929688 12.4375 -5.890625 C 13.207031 -6.847656 13.59375 -8.3125 13.59375 -10.28125 Z M 13.59375 -10.28125 "/></g></g></g><g fill="#9ea8c6" fill-opacity="1"><g transform="translate(23.136762, 27.940495)"><g><path d="M 14.5 0 L 13.515625 -3.765625 L 6.984375 -3.765625 L 5.96875 0 L 0 0 L 6.5625 -20.1875 L 13.796875 -20.1875 L 20.4375 0 Z M 12.390625 -8.21875 L 11.515625 -11.515625 C 11.316406 -12.253906 11.070312 -13.203125 10.78125 -14.359375 C 10.5 -15.523438 10.3125 -16.363281 10.21875 -16.875 C 10.132812 -16.40625 9.96875 -15.632812 9.71875 -14.5625 C 9.476562 -13.488281 8.941406 -11.375 8.109375 -8.21875 Z M 12.390625 -8.21875 "/></g></g></g><g fill="#9ea8c6" fill-opacity="1"><g transform="translate(46.373813, 27.940495)"><g><path d="M 11.046875 0 L 5.609375 0 L 5.609375 -15.65625 L 0.703125 -15.65625 L 0.703125 -20.09375 L 15.9375 -20.09375 L 15.9375 -15.65625 L 11.046875 -15.65625 Z M 11.046875 0 "/></g></g></g><g fill="#9ea8c6" fill-opacity="1"><g transform="translate(65.801628, 27.940495)"><g><path d="M 14.5 0 L 13.515625 -3.765625 L 6.984375 -3.765625 L 5.96875 0 L 0 0 L 6.5625 -20.1875 L 13.796875 -20.1875 L 20.4375 0 Z M 12.390625 -8.21875 L 11.515625 -11.515625 C 11.316406 -12.253906 11.070312 -13.203125 10.78125 -14.359375 C 10.5 -15.523438 10.3125 -16.363281 10.21875 -16.875 C 10.132812 -16.40625 9.96875 -15.632812 9.71875 -14.5625 C 9.476562 -13.488281 8.941406 -11.375 8.109375 -8.21875 Z M 12.390625 -8.21875 "/></g></g></g><g fill="#9ea8c6" fill-opacity="1"><g transform="translate(89.038679, 27.940495)"><g><path d="M 16.765625 -13.703125 C 16.765625 -11.460938 16.097656 -9.726562 14.765625 -8.5 C 13.441406 -7.28125 11.5625 -6.671875 9.125 -6.671875 L 7.609375 -6.671875 L 7.609375 0 L 2.171875 0 L 2.171875 -20.09375 L 9.125 -20.09375 C 11.664062 -20.09375 13.570312 -19.535156 14.84375 -18.421875 C 16.125 -17.316406 16.765625 -15.742188 16.765625 -13.703125 Z M 7.609375 -11.09375 L 8.59375 -11.09375 C 9.40625 -11.09375 10.050781 -11.320312 10.53125 -11.78125 C 11.019531 -12.238281 11.265625 -12.867188 11.265625 -13.671875 C 11.265625 -15.035156 10.507812 -15.71875 9 -15.71875 L 7.609375 -15.71875 Z M 7.609375 -11.09375 "/></g></g></g><g fill="#9ea8c6" fill-opacity="1"><g transform="translate(109.621641, 27.940495)"><g><path d="M 19.265625 -20.09375 L 19.265625 -8 C 19.265625 -5.375 18.519531 -3.335938 17.03125 -1.890625 C 15.539062 -0.441406 13.394531 0.28125 10.59375 0.28125 C 7.84375 0.28125 5.734375 -0.421875 4.265625 -1.828125 C 2.796875 -3.234375 2.0625 -5.25 2.0625 -7.875 L 2.0625 -20.09375 L 7.515625 -20.09375 L 7.515625 -8.296875 C 7.515625 -6.878906 7.78125 -5.847656 8.3125 -5.203125 C 8.84375 -4.566406 9.628906 -4.25 10.671875 -4.25 C 11.773438 -4.25 12.578125 -4.566406 13.078125 -5.203125 C 13.578125 -5.835938 13.828125 -6.878906 13.828125 -8.328125 L 13.828125 -20.09375 Z M 19.265625 -20.09375 "/></g></g></g><g fill="#9ea8c6" fill-opacity="1"><g transform="translate(133.725052, 27.940495)"><g><path d="M 2.171875 0 L 2.171875 -20.09375 L 7.609375 -20.09375 L 7.609375 -4.390625 L 15.34375 -4.390625 L 15.34375 0 Z M 2.171875 0 "/></g></g></g><g fill="#9ea8c6" fill-opacity="1"><g transform="translate(152.905327, 27.940495)"><g><path d="M 15.3125 -6.109375 C 15.3125 -4.859375 14.992188 -3.75 14.359375 -2.78125 C 13.734375 -1.8125 12.820312 -1.054688 11.625 -0.515625 C 10.4375 0.015625 9.039062 0.28125 7.4375 0.28125 C 6.101562 0.28125 4.976562 0.1875 4.0625 0 C 3.15625 -0.1875 2.210938 -0.515625 1.234375 -0.984375 L 1.234375 -5.828125 C 2.273438 -5.296875 3.351562 -4.878906 4.46875 -4.578125 C 5.582031 -4.285156 6.609375 -4.140625 7.546875 -4.140625 C 8.347656 -4.140625 8.9375 -4.28125 9.3125 -4.5625 C 9.695312 -4.84375 9.890625 -5.203125 9.890625 -5.640625 C 9.890625 -5.910156 9.8125 -6.148438 9.65625 -6.359375 C 9.507812 -6.566406 9.265625 -6.773438 8.921875 -6.984375 C 8.585938 -7.191406 7.695312 -7.625 6.25 -8.28125 C 4.945312 -8.875 3.96875 -9.445312 3.3125 -10 C 2.65625 -10.5625 2.164062 -11.203125 1.84375 -11.921875 C 1.53125 -12.648438 1.375 -13.507812 1.375 -14.5 C 1.375 -16.351562 2.046875 -17.796875 3.390625 -18.828125 C 4.742188 -19.867188 6.597656 -20.390625 8.953125 -20.390625 C 11.035156 -20.390625 13.15625 -19.90625 15.3125 -18.9375 L 13.65625 -14.75 C 11.769531 -15.613281 10.144531 -16.046875 8.78125 -16.046875 C 8.070312 -16.046875 7.554688 -15.921875 7.234375 -15.671875 C 6.921875 -15.421875 6.765625 -15.113281 6.765625 -14.75 C 6.765625 -14.351562 6.96875 -14 7.375 -13.6875 C 7.78125 -13.375 8.890625 -12.804688 10.703125 -11.984375 C 12.429688 -11.203125 13.628906 -10.363281 14.296875 -9.46875 C 14.972656 -8.582031 15.3125 -7.460938 15.3125 -6.109375 Z M 15.3125 -6.109375 "/></g></g></g><g clip-path="url(#6caa2b9755)"><g fill="#9ea8c6" fill-opacity="1"><g transform="translate(171.948102, 27.940495)"><g><path d="M 14.109375 0 L 2.171875 0 L 2.171875 -20.09375 L 14.109375 -20.09375 L 14.109375 -15.734375 L 7.609375 -15.734375 L 7.609375 -12.578125 L 13.625 -12.578125 L 13.625 -8.21875 L 7.609375 -8.21875 L 7.609375 -4.421875 L 14.109375 -4.421875 Z M 14.109375 0 "/></g></g></g></g></svg>