<svg xmlns="http://www.w3.org/2000/svg" xmlns:xlink="http://www.w3.org/1999/xlink" width="250" zoomAndPan="magnify" viewBox="0 0 187.5 37.5" height="50" preserveAspectRatio="xMidYMid meet" version="1.0"><defs><filter x="0%" y="0%" width="100%" height="100%" id="17563cfb37"><feColorMatrix values="0 0 0 0 1 0 0 0 0 1 0 0 0 0 1 0 0 0 1 0" color-interpolation-filters="sRGB"/></filter><g/><mask id="163a1db1e3"><g filter="url(#17563cfb37)"><rect x="-18.75" width="225" fill="#000000" y="-3.75" height="45" fill-opacity="0.19"/></g></mask><clipPath id="eae13d1401"><path d="M 0.554688 0.460938 L 9.199219 0.460938 L 9.199219 9.109375 L 0.554688 9.109375 Z M 0.554688 0.460938 " clip-rule="nonzero"/></clipPath><clipPath id="cf84269e1d"><path d="M 4.875 0.460938 C 2.488281 0.460938 0.554688 2.398438 0.554688 4.785156 C 0.554688 7.171875 2.488281 9.109375 4.875 9.109375 C 7.265625 9.109375 9.199219 7.171875 9.199219 4.785156 C 9.199219 2.398438 7.265625 0.460938 4.875 0.460938 Z M 4.875 0.460938 " clip-rule="nonzero"/></clipPath><clipPath id="12a625dce5"><rect x="0" width="10" y="0" height="10"/></clipPath><mask id="1ddeaf3fcf"><g filter="url(#17563cfb37)"><rect x="-18.75" width="225" fill="#000000" y="-3.75" height="45" fill-opacity="0.19"/></g></mask><clipPath id="a5ff48c4e4"><path d="M 0.886719 0.996094 L 8.40625 0.996094 L 8.40625 8.515625 L 0.886719 8.515625 Z M 0.886719 0.996094 " clip-rule="nonzero"/></clipPath><clipPath id="50cdd4a54d"><path d="M 4.644531 0.996094 C 2.570312 0.996094 0.886719 2.679688 0.886719 4.757812 C 0.886719 6.832031 2.570312 8.515625 4.644531 8.515625 C 6.722656 8.515625 8.40625 6.832031 8.40625 4.757812 C 8.40625 2.679688 6.722656 0.996094 4.644531 0.996094 Z M 4.644531 0.996094 " clip-rule="nonzero"/></clipPath><clipPath id="a998198914"><rect x="0" width="9" y="0" height="9"/></clipPath><clipPath id="96a96df471"><path d="M 0.988281 0 L 38 0 L 38 37 L 0.988281 37 Z M 0.988281 0 " clip-rule="nonzero"/></clipPath><mask id="68ec98e322"><g filter="url(#17563cfb37)"><rect x="-18.75" width="225" fill="#000000" y="-3.75" height="45" fill-opacity="0.55"/></g></mask><clipPath id="0ca2367797"><path d="M 0.988281 0 L 37.429688 0 L 37.429688 36.441406 L 0.988281 36.441406 Z M 0.988281 0 " clip-rule="nonzero"/></clipPath><clipPath id="a6393e2b61"><path d="M 19.207031 0 C 9.144531 0 0.988281 8.15625 0.988281 18.222656 C 0.988281 28.285156 9.144531 36.441406 19.207031 36.441406 C 29.273438 36.441406 37.429688 28.285156 37.429688 18.222656 C 37.429688 8.15625 29.273438 0 19.207031 0 Z M 19.207031 0 " clip-rule="nonzero"/></clipPath><clipPath id="b87dddfe6c"><rect x="0" width="38" y="0" height="37"/></clipPath><mask id="1df57443d2"><g filter="url(#17563cfb37)"><rect x="-18.75" width="225" fill="#000000" y="-3.75" height="45" fill-opacity="0.55"/></g></mask><clipPath id="17b43ab6e1"><path d="M 0.6875 0.65625 L 27.566406 0.65625 L 27.566406 27.535156 L 0.6875 27.535156 Z M 0.6875 0.65625 " clip-rule="nonzero"/></clipPath><clipPath id="721e81bd10"><path d="M 14.128906 0.65625 C 6.703125 0.65625 0.6875 6.671875 0.6875 14.097656 C 0.6875 21.519531 6.703125 27.535156 14.128906 27.535156 C 21.550781 27.535156 27.566406 21.519531 27.566406 14.097656 C 27.566406 6.671875 21.550781 0.65625 14.128906 0.65625 Z M 14.128906 0.65625 " clip-rule="nonzero"/></clipPath><clipPath id="b48c06c192"><rect x="0" width="28" y="0" height="28"/></clipPath></defs><g mask="url(#163a1db1e3)"><g transform="matrix(1, 0, 0, 1, 75, 14)"><g clip-path="url(#12a625dce5)"><g clip-path="url(#eae13d1401)"><g clip-path="url(#cf84269e1d)"><path fill="#ffffff" d="M 0.554688 0.460938 L 9.199219 0.460938 L 9.199219 9.109375 L 0.554688 9.109375 Z M 0.554688 0.460938 " fill-opacity="1" fill-rule="nonzero"/></g></g></g></g></g><g mask="url(#1ddeaf3fcf)"><g transform="matrix(1, 0, 0, 1, 77, 13)"><g clip-path="url(#a998198914)"><g clip-path="url(#a5ff48c4e4)"><g clip-path="url(#50cdd4a54d)"><path fill="#ffffff" d="M 0.886719 0.996094 L 8.40625 0.996094 L 8.40625 8.515625 L 0.886719 8.515625 Z M 0.886719 0.996094 " fill-opacity="1" fill-rule="nonzero"/></g></g></g></g></g><g clip-path="url(#96a96df471)"><g mask="url(#68ec98e322)"><g transform="matrix(1, 0, 0, 1, 0.000000000000000111, -0.000000000000001478)"><g clip-path="url(#b87dddfe6c)"><g clip-path="url(#0ca2367797)"><g clip-path="url(#a6393e2b61)"><path fill="#9ea8c6" d="M 0.988281 0 L 37.429688 0 L 37.429688 36.441406 L 0.988281 36.441406 Z M 0.988281 0 " fill-opacity="1" fill-rule="nonzero"/></g></g></g></g></g></g><g mask="url(#1df57443d2)"><g transform="matrix(1, 0, 0, 1, 15, -0.000000000000001499)"><g clip-path="url(#b48c06c192)"><g clip-path="url(#17b43ab6e1)"><g clip-path="url(#721e81bd10)"><path fill="#9ea8c6" d="M 0.6875 0.65625 L 27.566406 0.65625 L 27.566406 27.535156 L 0.6875 27.535156 Z M 0.6875 0.65625 " fill-opacity="1" fill-rule="nonzero"/></g></g></g></g></g><g fill="#9ea8c6" fill-opacity="1"><g transform="translate(45.762012, 33.118979)"><g><path d="M 2.828125 -18.546875 L 5.4375 -18.546875 L 5.4375 -15.71875 C 6.863281 -17.875 8.664062 -18.953125 10.84375 -18.953125 C 11.0625 -18.953125 11.265625 -18.941406 11.453125 -18.921875 C 11.640625 -18.910156 11.800781 -18.890625 11.9375 -18.859375 L 11.40625 -15.921875 C 11.082031 -16.003906 10.71875 -16.046875 10.3125 -16.046875 C 8.863281 -16.046875 7.6875 -15.601562 6.78125 -14.71875 C 5.882812 -13.832031 5.4375 -12.609375 5.4375 -11.046875 L 5.4375 0 L 2.828125 0 Z M 2.828125 -18.546875 "/></g></g></g><g fill="#9ea8c6" fill-opacity="1"><g transform="translate(58.297595, 33.118979)"><g><path d="M 2.828125 -18.546875 L 5.4375 -18.546875 L 5.4375 0 L 2.828125 0 Z M 4.109375 -22.328125 C 3.578125 -22.328125 3.128906 -22.515625 2.765625 -22.890625 C 2.398438 -23.273438 2.21875 -23.734375 2.21875 -24.265625 C 2.21875 -24.804688 2.40625 -25.265625 2.78125 -25.640625 C 3.15625 -26.015625 3.613281 -26.203125 4.15625 -26.203125 C 4.6875 -26.203125 5.132812 -26.015625 5.5 -25.640625 C 5.863281 -25.265625 6.046875 -24.804688 6.046875 -24.265625 C 6.046875 -23.734375 5.859375 -23.273438 5.484375 -22.890625 C 5.109375 -22.515625 4.648438 -22.328125 4.109375 -22.328125 Z M 4.109375 -22.328125 "/></g></g></g><g fill="#9ea8c6" fill-opacity="1"><g transform="translate(66.560618, 33.118979)"><g><path d="M 2.828125 -18.546875 L 5.4375 -18.546875 L 5.4375 -15.6875 C 6.914062 -17.863281 8.835938 -18.953125 11.203125 -18.953125 C 12.578125 -18.953125 13.800781 -18.609375 14.875 -17.921875 C 15.945312 -17.234375 16.753906 -16.300781 17.296875 -15.125 C 17.992188 -16.332031 18.882812 -17.269531 19.96875 -17.9375 C 21.0625 -18.613281 22.304688 -18.953125 23.703125 -18.953125 C 24.753906 -18.953125 25.710938 -18.757812 26.578125 -18.375 C 27.453125 -18 28.207031 -17.472656 28.84375 -16.796875 C 29.476562 -16.128906 29.96875 -15.332031 30.3125 -14.40625 C 30.664062 -13.476562 30.84375 -12.476562 30.84375 -11.40625 L 30.84375 0 L 28.21875 0 L 28.21875 -11.046875 C 28.21875 -12.710938 27.765625 -14.039062 26.859375 -15.03125 C 25.960938 -16.03125 24.75 -16.53125 23.21875 -16.53125 C 21.6875 -16.53125 20.457031 -16.035156 19.53125 -15.046875 C 18.601562 -14.066406 18.140625 -12.734375 18.140625 -11.046875 L 18.140625 0 L 15.515625 0 L 15.515625 -11.046875 C 15.515625 -12.734375 15.0625 -14.066406 14.15625 -15.046875 C 13.257812 -16.035156 12.046875 -16.53125 10.515625 -16.53125 C 8.984375 -16.53125 7.753906 -16.023438 6.828125 -15.015625 C 5.898438 -14.003906 5.4375 -12.679688 5.4375 -11.046875 L 5.4375 0 L 2.828125 0 Z M 2.828125 -18.546875 "/></g></g></g><g fill="#9ea8c6" fill-opacity="1"><g transform="translate(100.015713, 33.118979)"><g><path d="M 12.046875 0.40625 C 10.648438 0.40625 9.390625 0.0976562 8.265625 -0.515625 C 7.140625 -1.140625 6.195312 -2.003906 5.4375 -3.109375 L 5.4375 0 L 2.828125 0 L 2.828125 -28.625 L 5.4375 -28.625 L 5.4375 -15.40625 C 6.195312 -16.53125 7.144531 -17.398438 8.28125 -18.015625 C 9.425781 -18.640625 10.695312 -18.953125 12.09375 -18.953125 C 13.332031 -18.953125 14.488281 -18.703125 15.5625 -18.203125 C 16.632812 -17.703125 17.570312 -17.015625 18.375 -16.140625 C 19.1875 -15.265625 19.820312 -14.234375 20.28125 -13.046875 C 20.738281 -11.867188 20.96875 -10.609375 20.96875 -9.265625 C 20.96875 -7.921875 20.738281 -6.65625 20.28125 -5.46875 C 19.820312 -4.289062 19.1875 -3.265625 18.375 -2.390625 C 17.570312 -1.523438 16.625 -0.84375 15.53125 -0.34375 C 14.445312 0.15625 13.285156 0.40625 12.046875 0.40625 Z M 11.65625 -2.015625 C 12.59375 -2.015625 13.460938 -2.203125 14.265625 -2.578125 C 15.078125 -2.953125 15.769531 -3.460938 16.34375 -4.109375 C 16.925781 -4.753906 17.382812 -5.519531 17.71875 -6.40625 C 18.050781 -7.289062 18.21875 -8.242188 18.21875 -9.265625 C 18.21875 -10.285156 18.050781 -11.238281 17.71875 -12.125 C 17.382812 -13.019531 16.925781 -13.789062 16.34375 -14.4375 C 15.769531 -15.082031 15.078125 -15.582031 14.265625 -15.9375 C 13.460938 -16.300781 12.59375 -16.484375 11.65625 -16.484375 C 10.6875 -16.484375 9.796875 -16.296875 8.984375 -15.921875 C 8.179688 -15.546875 7.488281 -15.035156 6.90625 -14.390625 C 6.332031 -13.742188 5.878906 -12.984375 5.546875 -12.109375 C 5.210938 -11.234375 5.046875 -10.285156 5.046875 -9.265625 C 5.046875 -8.242188 5.210938 -7.289062 5.546875 -6.40625 C 5.878906 -5.519531 6.332031 -4.753906 6.90625 -4.109375 C 7.488281 -3.460938 8.179688 -2.953125 8.984375 -2.578125 C 9.796875 -2.203125 10.6875 -2.015625 11.65625 -2.015625 Z M 11.65625 -2.015625 "/></g></g></g><g fill="#9ea8c6" fill-opacity="1"><g transform="translate(122.789357, 33.118979)"><g><path d="M 11.375 0.40625 C 9.945312 0.40625 8.644531 0.164062 7.46875 -0.3125 C 6.300781 -0.800781 5.300781 -1.472656 4.46875 -2.328125 C 3.632812 -3.191406 2.984375 -4.210938 2.515625 -5.390625 C 2.046875 -6.578125 1.8125 -7.867188 1.8125 -9.265625 C 1.8125 -10.671875 2.039062 -11.960938 2.5 -13.140625 C 2.957031 -14.328125 3.585938 -15.347656 4.390625 -16.203125 C 5.203125 -17.066406 6.164062 -17.738281 7.28125 -18.21875 C 8.394531 -18.707031 9.625 -18.953125 10.96875 -18.953125 C 12.226562 -18.953125 13.394531 -18.726562 14.46875 -18.28125 C 15.539062 -17.832031 16.46875 -17.21875 17.25 -16.4375 C 18.03125 -15.664062 18.640625 -14.726562 19.078125 -13.625 C 19.523438 -12.519531 19.75 -11.3125 19.75 -10 C 19.75 -9.457031 19.707031 -8.972656 19.625 -8.546875 L 4.59375 -8.546875 C 4.757812 -6.523438 5.46875 -4.941406 6.71875 -3.796875 C 7.96875 -2.660156 9.570312 -2.09375 11.53125 -2.09375 C 13.976562 -2.09375 16.019531 -3.035156 17.65625 -4.921875 L 19.34375 -3.5 C 18.382812 -2.21875 17.21875 -1.242188 15.84375 -0.578125 C 14.46875 0.078125 12.976562 0.40625 11.375 0.40625 Z M 16.9375 -10.890625 C 16.71875 -12.660156 16.0625 -14.03125 14.96875 -15 C 13.882812 -15.96875 12.523438 -16.453125 10.890625 -16.453125 C 9.191406 -16.453125 7.796875 -15.945312 6.703125 -14.9375 C 5.617188 -13.925781 4.941406 -12.578125 4.671875 -10.890625 Z M 16.9375 -10.890625 "/></g></g></g><g fill="#9ea8c6" fill-opacity="1"><g transform="translate(144.152259, 33.118979)"><g><path d="M 2.828125 -18.546875 L 5.4375 -18.546875 L 5.4375 -15.71875 C 6.863281 -17.875 8.664062 -18.953125 10.84375 -18.953125 C 11.0625 -18.953125 11.265625 -18.941406 11.453125 -18.921875 C 11.640625 -18.910156 11.800781 -18.890625 11.9375 -18.859375 L 11.40625 -15.921875 C 11.082031 -16.003906 10.71875 -16.046875 10.3125 -16.046875 C 8.863281 -16.046875 7.6875 -15.601562 6.78125 -14.71875 C 5.882812 -13.832031 5.4375 -12.609375 5.4375 -11.046875 L 5.4375 0 L 2.828125 0 Z M 2.828125 -18.546875 "/></g></g></g><g fill="#9ea8c6" fill-opacity="1"><g transform="translate(156.687842, 33.118979)"><g><path d="M 2.828125 -18.546875 L 5.4375 -18.546875 L 5.4375 0 L 2.828125 0 Z M 4.109375 -22.328125 C 3.578125 -22.328125 3.128906 -22.515625 2.765625 -22.890625 C 2.398438 -23.273438 2.21875 -23.734375 2.21875 -24.265625 C 2.21875 -24.804688 2.40625 -25.265625 2.78125 -25.640625 C 3.15625 -26.015625 3.613281 -26.203125 4.15625 -26.203125 C 4.6875 -26.203125 5.132812 -26.015625 5.5 -25.640625 C 5.863281 -25.265625 6.046875 -24.804688 6.046875 -24.265625 C 6.046875 -23.734375 5.859375 -23.273438 5.484375 -22.890625 C 5.109375 -22.515625 4.648438 -22.328125 4.109375 -22.328125 Z M 4.109375 -22.328125 "/></g></g></g><g fill="#9ea8c6" fill-opacity="1"><g transform="translate(164.950865, 33.118979)"><g><path d="M 11.28125 0.40625 C 9.96875 0.40625 8.738281 0.148438 7.59375 -0.359375 C 6.457031 -0.867188 5.457031 -1.5625 4.59375 -2.4375 C 3.738281 -3.3125 3.0625 -4.332031 2.5625 -5.5 C 2.0625 -6.664062 1.8125 -7.921875 1.8125 -9.265625 C 1.8125 -10.585938 2.0625 -11.835938 2.5625 -13.015625 C 3.0625 -14.203125 3.738281 -15.234375 4.59375 -16.109375 C 5.457031 -16.984375 6.457031 -17.675781 7.59375 -18.1875 C 8.738281 -18.695312 9.96875 -18.953125 11.28125 -18.953125 C 12.601562 -18.953125 13.832031 -18.695312 14.96875 -18.1875 C 16.113281 -17.675781 17.113281 -16.984375 17.96875 -16.109375 C 18.832031 -15.234375 19.515625 -14.207031 20.015625 -13.03125 C 20.515625 -11.863281 20.765625 -10.609375 20.765625 -9.265625 C 20.765625 -7.921875 20.515625 -6.664062 20.015625 -5.5 C 19.515625 -4.332031 18.832031 -3.3125 17.96875 -2.4375 C 17.113281 -1.5625 16.113281 -0.867188 14.96875 -0.359375 C 13.832031 0.148438 12.601562 0.40625 11.28125 0.40625 Z M 11.28125 -2.0625 C 12.25 -2.0625 13.144531 -2.238281 13.96875 -2.59375 C 14.789062 -2.957031 15.503906 -3.460938 16.109375 -4.109375 C 16.710938 -4.753906 17.179688 -5.515625 17.515625 -6.390625 C 17.847656 -7.265625 18.015625 -8.222656 18.015625 -9.265625 C 18.015625 -10.316406 17.847656 -11.28125 17.515625 -12.15625 C 17.179688 -13.03125 16.710938 -13.789062 16.109375 -14.4375 C 15.503906 -15.082031 14.789062 -15.582031 13.96875 -15.9375 C 13.144531 -16.300781 12.25 -16.484375 11.28125 -16.484375 C 10.320312 -16.484375 9.429688 -16.300781 8.609375 -15.9375 C 7.785156 -15.582031 7.070312 -15.082031 6.46875 -14.4375 C 5.863281 -13.789062 5.394531 -13.03125 5.0625 -12.15625 C 4.726562 -11.28125 4.5625 -10.316406 4.5625 -9.265625 C 4.5625 -8.222656 4.726562 -7.265625 5.0625 -6.390625 C 5.394531 -5.515625 5.863281 -4.753906 6.46875 -4.109375 C 7.070312 -3.460938 7.785156 -2.957031 8.609375 -2.59375 C 9.429688 -2.238281 10.320312 -2.0625 11.28125 -2.0625 Z M 11.28125 -2.0625 "/></g></g></g></svg>