<svg xmlns="http://www.w3.org/2000/svg" xmlns:xlink="http://www.w3.org/1999/xlink" width="250" zoomAndPan="magnify" viewBox="0 0 187.5 37.5" height="50" preserveAspectRatio="xMidYMid meet" version="1.0"><defs><g/><clipPath id="af3f8d9663"><path d="M 83 18 L 86 18 L 86 20 L 83 20 Z M 83 18 " clip-rule="nonzero"/></clipPath><clipPath id="595208a25c"><path d="M 83.730469 18.515625 L 85.210938 18.410156 L 85.316406 19.890625 L 83.835938 19.996094 Z M 83.730469 18.515625 " clip-rule="nonzero"/></clipPath><clipPath id="4675ef3d14"><path d="M 83.730469 18.515625 L 85.210938 18.410156 L 85.316406 19.890625 L 83.835938 19.996094 Z M 83.730469 18.515625 " clip-rule="nonzero"/></clipPath><clipPath id="3867b79701"><path d="M 102 17 L 104 17 L 104 19 L 102 19 Z M 102 17 " clip-rule="nonzero"/></clipPath><clipPath id="2df52f113d"><path d="M 102.195312 17.203125 L 103.675781 17.097656 L 103.78125 18.578125 L 102.300781 18.683594 Z M 102.195312 17.203125 " clip-rule="nonzero"/></clipPath><clipPath id="08e415419a"><path d="M 102.195312 17.203125 L 103.675781 17.097656 L 103.78125 18.578125 L 102.300781 18.683594 Z M 102.195312 17.203125 " clip-rule="nonzero"/></clipPath><clipPath id="0690bf3ed3"><path d="M 177 10 L 186.019531 10 L 186.019531 27 L 177 27 Z M 177 10 " clip-rule="nonzero"/></clipPath><clipPath id="d15b3ee8fc"><path d="M 7.457031 8.472656 L 17 8.472656 L 17 28.507812 L 7.457031 28.507812 Z M 7.457031 8.472656 " clip-rule="nonzero"/></clipPath><clipPath id="8ad4404dc5"><path d="M 18 8.472656 L 27.492188 8.472656 L 27.492188 28.507812 L 18 28.507812 Z M 18 8.472656 " clip-rule="nonzero"/></clipPath></defs><g clip-path="url(#af3f8d9663)"><g clip-path="url(#595208a25c)"><g clip-path="url(#4675ef3d14)"><path fill="#ffffff" d="M 84.472656 18.464844 C 84.5 18.875 84.191406 19.226562 83.785156 19.257812 C 84.191406 19.226562 84.546875 19.535156 84.578125 19.945312 C 84.546875 19.535156 84.855469 19.179688 85.265625 19.152344 C 84.855469 19.179688 84.5 18.875 84.472656 18.464844 Z M 84.472656 18.464844 " fill-opacity="1" fill-rule="nonzero"/></g></g></g><g clip-path="url(#3867b79701)"><g clip-path="url(#2df52f113d)"><g clip-path="url(#08e415419a)"><path fill="#ffffff" d="M 102.933594 17.148438 C 102.960938 17.558594 102.65625 17.914062 102.246094 17.941406 C 102.65625 17.914062 103.011719 18.222656 103.039062 18.628906 C 103.011719 18.222656 103.316406 17.867188 103.726562 17.835938 C 103.316406 17.867188 102.960938 17.558594 102.933594 17.148438 Z M 102.933594 17.148438 " fill-opacity="1" fill-rule="nonzero"/></g></g></g><g fill="#9ea8c6" fill-opacity="1"><g transform="translate(34.232307, 27.699197)"><g><path d="M 10.019531 -15.261719 C 11.707031 -17.910156 12.933594 -22.058594 11.183594 -24.972656 C 9.585938 -27.644531 5.917969 -27.203125 3.785156 -25.46875 C 1.253906 -23.417969 0.0976562 -20.015625 0.488281 -16.816406 C 0.914062 -13.371094 2.90625 -10.632812 5.402344 -8.332031 C 6.984375 -6.875 9.335938 -5.3125 10.082031 -3.1875 C 10.605469 -1.679688 9.949219 -0.078125 8.351562 0.347656 C 7.773438 0.507812 7.140625 0.523438 6.589844 0.3125 C 5.542969 -0.078125 5.234375 -1.332031 6.28125 -1.929688 C 6.714844 -2.175781 6.324219 -2.851562 5.890625 -2.601562 C 4.992188 -2.085938 4.566406 -1.128906 4.992188 -0.132812 C 5.464844 0.976562 6.761719 1.332031 7.871094 1.226562 C 11.21875 0.886719 11.699219 -2.585938 9.976562 -4.929688 C 7.472656 -8.332031 3.507812 -10.199219 1.910156 -14.339844 C 0.472656 -18.058594 1.226562 -22.875 4.734375 -25.210938 C 7.105469 -26.792969 10.367188 -26.25 11.023438 -23.210938 C 11.59375 -20.601562 10.75 -17.855469 9.355469 -15.660156 C 9.078125 -15.234375 9.753906 -14.84375 10.019531 -15.261719 Z M 10.019531 -15.261719 "/></g></g></g><g fill="#9ea8c6" fill-opacity="1"><g transform="translate(46.302476, 27.699197)"><g><path d="M 7.59375 -10.152344 C 7.132812 -9.921875 6.628906 -9.65625 6.113281 -9.34375 C 6.121094 -9.363281 6.121094 -9.371094 6.121094 -9.382812 C 6.351562 -10.679688 6.582031 -12.292969 6.085938 -13.566406 C 5.242188 -15.714844 3.625 -13.484375 3.171875 -12.402344 C 1.902344 -9.382812 1.449219 -5.941406 0.996094 -2.71875 C 0.84375 -1.617188 0.683594 -0.496094 0.550781 0.628906 C 0.65625 -5.011719 1.4375 -10.625 2.675781 -16.132812 C 2.976562 -16.675781 3.054688 -17.757812 3.144531 -18.175781 C 3.214844 -18.425781 3.046875 -18.601562 2.851562 -18.648438 C 2.664062 -18.699219 2.453125 -18.628906 2.390625 -18.390625 C 2.210938 -17.757812 1.9375 -17.066406 1.847656 -16.398438 C 1.296875 -14.320312 0.738281 -12.195312 -0.222656 -10.289062 C -0.375 -9.914062 0.214844 -9.699219 0.410156 -9.871094 C 0.570312 -10.171875 0.710938 -10.472656 0.84375 -10.785156 C -0.152344 -4.699219 -0.53125 1.476562 0.0078125 7.640625 C 0.0351562 7.996094 0.433594 8.09375 0.648438 7.949219 C 0.808594 7.914062 0.941406 7.789062 0.933594 7.585938 C 0.800781 2.808594 1.546875 -2.148438 2.460938 -6.824219 C 2.851562 -8.820312 3.226562 -11.132812 4.28125 -12.917969 C 4.609375 -13.46875 5.046875 -14.054688 5.382812 -13.199219 C 5.800781 -12.160156 5.5625 -10.652344 5.375 -9.59375 C 5.332031 -9.335938 5.269531 -9.050781 5.207031 -8.75 C 4.058594 -7.925781 3.03125 -6.894531 2.628906 -5.667969 C 2.238281 -4.433594 3.421875 -4.015625 4.191406 -4.859375 C 5.046875 -5.773438 5.550781 -7.007812 5.871094 -8.242188 C 6.539062 -8.722656 7.25 -9.125 7.988281 -9.480469 C 8.4375 -9.699219 8.039062 -10.367188 7.59375 -10.152344 Z M 3.640625 -5.410156 C 3.429688 -5.222656 3.429688 -4.957031 3.457031 -5.417969 C 3.480469 -5.710938 3.679688 -5.953125 3.828125 -6.183594 C 4.121094 -6.617188 4.460938 -7.007812 4.832031 -7.375 C 4.566406 -6.589844 4.183594 -5.863281 3.640625 -5.410156 Z M 3.640625 -5.410156 "/></g></g></g><g fill="#9ea8c6" fill-opacity="1"><g transform="translate(54.32261, 27.699197)"><g><path d="M 7.238281 -10.054688 C 7.089844 -9.398438 5.863281 -6.726562 5.011719 -7.035156 C 4.132812 -7.347656 4.433594 -10.445312 4.148438 -11.335938 C 4.023438 -11.707031 3.519531 -11.699219 3.394531 -11.335938 C 2.984375 -10.128906 2.621094 -8.890625 2.140625 -7.71875 C 1.953125 -7.257812 1.359375 -5.722656 0.542969 -6.234375 C 0.1875 -6.457031 0.3125 -7.59375 0.335938 -7.988281 C 0.425781 -9.238281 0.703125 -10.492188 1.144531 -11.671875 C 1.378906 -12.304688 1.660156 -12.980469 2.027344 -13.546875 C 2.789062 -14.730469 4.769531 -14.585938 4.511719 -12.84375 C 4.441406 -12.355469 5.195312 -12.144531 5.269531 -12.640625 C 5.5 -14.214844 4.175781 -15.6875 2.53125 -15.039062 C 0.675781 -14.300781 -0.0273438 -10.925781 -0.300781 -9.222656 C -0.453125 -8.261719 -0.863281 -4.878906 1.003906 -5.234375 C 1.828125 -5.390625 2.398438 -6.394531 2.71875 -7.082031 C 3.054688 -7.816406 3.324219 -8.589844 3.570312 -9.371094 C 3.660156 -7.914062 3.828125 -6.210938 5.074219 -6.210938 C 6.503906 -6.210938 7.71875 -8.695312 7.996094 -9.851562 C 8.101562 -10.339844 7.355469 -10.542969 7.238281 -10.054688 Z M 7.238281 -10.054688 "/></g></g></g><g fill="#9ea8c6" fill-opacity="1"><g transform="translate(61.925306, 27.699197)"><g><path d="M 6.003906 -10.359375 C 5.660156 -8.964844 5.152344 -6.867188 3.988281 -5.890625 C 2.871094 -4.949219 3.011719 -6.546875 3.089844 -7.277344 C 3.277344 -9.089844 4.058594 -10.847656 4.15625 -12.660156 C 4.183594 -13.113281 4.15625 -13.503906 3.660156 -13.679688 C 2.871094 -13.964844 2.523438 -13.15625 2 -12.785156 C 1.9375 -12.730469 1.847656 -12.675781 1.742188 -12.625 C 2.035156 -13.582031 2.085938 -14.488281 1.476562 -14.808594 C 0.117188 -15.5 -0.410156 -12.695312 0.570312 -11.824219 C 0.363281 -11.265625 0.117188 -10.730469 -0.1875 -10.234375 C -0.445312 -9.808594 0.230469 -9.417969 0.488281 -9.84375 C 0.667969 -10.144531 1.023438 -10.792969 1.339844 -11.523438 C 1.953125 -11.539062 2.40625 -12.152344 2.886719 -12.597656 C 3.5 -13.164062 3.421875 -12.863281 3.3125 -12.277344 C 3.234375 -11.769531 3.101562 -11.265625 2.984375 -10.765625 C 2.664062 -9.390625 1.554688 -6.414062 2.613281 -5.125 C 4.460938 -2.886719 6.53125 -9.238281 6.75 -10.144531 C 6.867188 -10.632812 6.121094 -10.847656 6.003906 -10.359375 Z M 0.96875 -13.085938 C 0.933594 -12.945312 0.886719 -12.808594 0.851562 -12.667969 C 0.71875 -12.917969 0.773438 -13.394531 0.84375 -13.628906 C 1.171875 -14.65625 1.058594 -13.46875 0.96875 -13.085938 Z M 0.96875 -13.085938 "/></g></g></g><g fill="#9ea8c6" fill-opacity="1"><g transform="translate(68.257926, 27.699197)"><g><path d="M 8.777344 -9.566406 C 9.015625 -10.011719 8.339844 -10.402344 8.109375 -9.957031 C 7.542969 -8.882812 6.9375 -7.828125 6.21875 -6.847656 C 5.785156 -6.273438 5.304688 -5.703125 4.707031 -5.277344 C 4.460938 -5.089844 4.183594 -4.914062 3.882812 -4.851562 C 3.367188 -4.742188 2.183594 -5.097656 1.929688 -5.660156 C 1.609375 -6.359375 2.488281 -7.054688 2.824219 -7.585938 C 3.164062 -8.121094 3.445312 -8.6875 3.660156 -9.273438 C 3.953125 -10.074219 4.523438 -11.609375 4.03125 -12.445312 C 2.851562 -14.472656 1.144531 -9.070312 0.941406 -8.457031 C 0.613281 -7.453125 0.363281 -6.441406 0.167969 -5.417969 C 0.214844 -7.886719 0.433594 -10.359375 0.773438 -12.808594 C 2 -15.066406 3.054688 -17.421875 3.890625 -19.835938 C 4.378906 -21.265625 4.816406 -22.742188 5 -24.242188 C 5.097656 -25 5.214844 -25.984375 4.816406 -26.6875 C 3.75 -28.542969 2.59375 -26.003906 2.300781 -25.078125 C 1.277344 -21.878906 0.835938 -18.425781 0.328125 -15.136719 C 0.214844 -14.445312 0.117188 -13.742188 0.0195312 -13.050781 L -0.222656 -11.09375 C -0.667969 -7.0625 -0.789062 -3.019531 -0.230469 1.023438 C -0.230469 1.023438 -0.230469 1.023438 -0.230469 1.03125 C -0.222656 1.066406 -0.222656 1.09375 -0.214844 1.128906 C -0.152344 1.5625 0.578125 1.464844 0.550781 1.03125 C 0.410156 -1.179688 0.550781 -3.394531 0.984375 -5.542969 C 1.242188 -5.117188 1.742188 -4.742188 2.070312 -4.523438 C 2.871094 -3.996094 3.800781 -3.882812 4.664062 -4.316406 C 6.589844 -5.292969 7.816406 -7.738281 8.777344 -9.566406 Z M 1.15625 -15.429688 C 1.679688 -18.683594 2.0625 -22.234375 3.207031 -25.355469 C 3.304688 -25.613281 3.589844 -26.578125 3.953125 -26.507812 C 4.300781 -26.445312 4.289062 -25.59375 4.300781 -25.363281 C 4.335938 -23.960938 3.910156 -22.511719 3.507812 -21.179688 C 2.878906 -19.117188 2.0625 -17.09375 1.109375 -15.136719 C 1.128906 -15.234375 1.136719 -15.332031 1.15625 -15.429688 Z M 1.332031 -7.027344 C 1.519531 -7.730469 1.742188 -8.421875 1.988281 -9.105469 C 2.273438 -9.878906 2.550781 -10.820312 3.03125 -11.503906 C 3.445312 -12.097656 3.4375 -11.734375 3.324219 -11.007812 C 3.269531 -10.6875 3.1875 -10.367188 3.101562 -10.046875 C 2.871094 -9.257812 2.515625 -8.5 2.050781 -7.816406 C 1.890625 -7.578125 1.597656 -7.3125 1.332031 -7.027344 Z M 1.332031 -7.027344 "/></g></g></g><g fill="#9ea8c6" fill-opacity="1"><g transform="translate(76.624444, 27.699197)"><g/></g></g><g fill="#9ea8c6" fill-opacity="1"><g transform="translate(81.353771, 27.699197)"><g><path d="M 5.90625 -2.496094 C 6.984375 -5.515625 7.417969 -8.714844 8.367188 -11.78125 C 9.050781 -8.003906 9.089844 -4.140625 9.90625 -0.382812 C 10.101562 0.515625 10.332031 2.929688 11.621094 3.089844 C 12.945312 3.25 13.628906 1.253906 13.910156 0.328125 C 15.148438 -3.6875 15.324219 -8.15625 15.476562 -12.3125 C 15.644531 -16.921875 15.449219 -21.535156 14.933594 -26.117188 C 14.871094 -26.605469 14.097656 -26.617188 14.152344 -26.117188 C 14.996094 -18.65625 15.066406 -10.980469 13.945312 -3.542969 C 13.824219 -2.683594 13.664062 -1.828125 13.457031 -0.996094 C 13.296875 -0.300781 13.085938 1.066406 12.550781 1.554688 C 11.210938 2.796875 10.953125 0.683594 10.757812 -0.125 C 10.5625 -0.976562 10.402344 -1.839844 10.277344 -2.699219 C 9.746094 -6.246094 9.648438 -9.851562 8.832031 -13.359375 C 8.742188 -13.761719 8.207031 -13.691406 8.085938 -13.359375 C 7.140625 -10.855469 6.664062 -8.234375 6.023438 -5.660156 C 5.703125 -4.378906 5.347656 -3.101562 4.839844 -1.882812 C 4.691406 -1.511719 4.523438 -1.136719 4.34375 -0.78125 C 4.058594 -0.222656 3.757812 0.472656 3.339844 0.417969 C 2.96875 0.382812 2.808594 -0.265625 2.664062 -0.84375 C 2.539062 -1.367188 2.460938 -1.882812 2.40625 -2.40625 C 2.132812 -5.234375 2.320312 -8.144531 2.628906 -10.953125 C 2.796875 -12.542969 3.054688 -14.125 3.375 -15.699219 C 3.605469 -16.824219 3.765625 -18.40625 4.53125 -19.375 C 4.558594 -19.3125 4.582031 -19.25 4.609375 -19.1875 C 4.609375 -18.683594 5.390625 -18.683594 5.382812 -19.1875 C 5.382812 -19.6875 5.269531 -19.960938 4.921875 -20.324219 C 4.769531 -20.484375 4.53125 -20.449219 4.371094 -20.324219 C 3.207031 -19.410156 3.019531 -17.742188 2.726562 -16.382812 C 2.320312 -14.515625 2.027344 -12.613281 1.820312 -10.714844 C 1.617188 -8.757812 1.519531 -6.796875 1.527344 -4.839844 C 1.546875 -3.207031 1.484375 -1.128906 2.230469 0.375 C 3.652344 3.261719 5.5 -1.359375 5.90625 -2.496094 Z M 5.90625 -2.496094 "/></g></g></g><g fill="#9ea8c6" fill-opacity="1"><g transform="translate(98.761814, 27.699197)"><g><path d="M 7.238281 -10.054688 C 7.089844 -9.398438 5.863281 -6.726562 5.011719 -7.035156 C 4.132812 -7.347656 4.433594 -10.445312 4.148438 -11.335938 C 4.023438 -11.707031 3.519531 -11.699219 3.394531 -11.335938 C 2.984375 -10.128906 2.621094 -8.890625 2.140625 -7.71875 C 1.953125 -7.257812 1.359375 -5.722656 0.542969 -6.234375 C 0.1875 -6.457031 0.3125 -7.59375 0.335938 -7.988281 C 0.425781 -9.238281 0.703125 -10.492188 1.144531 -11.671875 C 1.378906 -12.304688 1.660156 -12.980469 2.027344 -13.546875 C 2.789062 -14.730469 4.769531 -14.585938 4.511719 -12.84375 C 4.441406 -12.355469 5.195312 -12.144531 5.269531 -12.640625 C 5.5 -14.214844 4.175781 -15.6875 2.53125 -15.039062 C 0.675781 -14.300781 -0.0273438 -10.925781 -0.300781 -9.222656 C -0.453125 -8.261719 -0.863281 -4.878906 1.003906 -5.234375 C 1.828125 -5.390625 2.398438 -6.394531 2.71875 -7.082031 C 3.054688 -7.816406 3.324219 -8.589844 3.570312 -9.371094 C 3.660156 -7.914062 3.828125 -6.210938 5.074219 -6.210938 C 6.503906 -6.210938 7.71875 -8.695312 7.996094 -9.851562 C 8.101562 -10.339844 7.355469 -10.542969 7.238281 -10.054688 Z M 7.238281 -10.054688 "/></g></g></g><g fill="#9ea8c6" fill-opacity="1"><g transform="translate(106.36451, 27.699197)"><g><path d="M 9.746094 -10.277344 C 9.417969 -9.585938 8.554688 -8.839844 7.730469 -8.945312 C 6.964844 -9.042969 6.636719 -9.761719 6.484375 -10.472656 C 6.566406 -10.945312 6.644531 -11.398438 6.714844 -11.84375 C 6.785156 -12.277344 7.0625 -13.28125 6.636719 -13.628906 C 5.898438 -14.230469 5.585938 -12.90625 5.5625 -12.445312 C 5.527344 -11.878906 5.535156 -11.148438 5.667969 -10.457031 C 5.347656 -8.929688 4.878906 -7.382812 4.238281 -6.003906 C 4.09375 -5.703125 3.953125 -5.355469 3.730469 -5.109375 C 3.375 -4.707031 3.4375 -4.726562 3.234375 -5.171875 C 2.816406 -6.066406 2.78125 -7.292969 2.699219 -8.261719 C 2.488281 -10.542969 2.453125 -12.90625 2.753906 -15.199219 C 2.824219 -15.609375 2.894531 -16.007812 2.941406 -16.425781 C 2.941406 -16.425781 2.941406 -16.433594 2.941406 -16.433594 C 2.949219 -16.46875 2.957031 -16.503906 2.957031 -16.542969 C 3.003906 -16.96875 2.273438 -17.074219 2.195312 -16.640625 C 2.105469 -16.167969 2.027344 -15.6875 1.964844 -15.199219 C 1.597656 -13.40625 0.914062 -11.71875 -0.0976562 -10.144531 C -0.363281 -9.71875 0.3125 -9.328125 0.578125 -9.753906 C 1.03125 -10.457031 1.414062 -11.183594 1.742188 -11.941406 C 1.722656 -10.269531 1.839844 -8.597656 2.0625 -6.972656 C 2.238281 -5.710938 2.878906 -2.523438 4.46875 -4.804688 C 5.292969 -5.988281 5.820312 -7.535156 6.191406 -9.078125 C 6.378906 -8.777344 6.628906 -8.519531 6.945312 -8.339844 C 8.183594 -7.65625 9.878906 -8.769531 10.421875 -9.886719 C 10.640625 -10.332031 9.96875 -10.730469 9.746094 -10.277344 Z M 9.746094 -10.277344 "/></g></g></g><g fill="#9ea8c6" fill-opacity="1"><g transform="translate(116.40078, 27.699197)"><g><path d="M 5.730469 -10.207031 C 5.074219 -8.945312 4.015625 -7.265625 2.480469 -6.964844 C 1.039062 -6.6875 0.523438 -8.011719 0.445312 -9.210938 C 0.433594 -9.433594 0.433594 -9.65625 0.460938 -9.871094 C 0.523438 -9.710938 0.683594 -9.578125 0.90625 -9.640625 C 2.335938 -10.019531 4.308594 -11.503906 3.722656 -13.261719 C 3.492188 -13.972656 2.824219 -14.097656 2.140625 -13.867188 C 1.058594 -13.496094 0.265625 -12.125 -0.078125 -11.09375 C -0.550781 -9.683594 -0.488281 -7.089844 1.109375 -6.34375 C 3.402344 -5.269531 5.515625 -8.121094 6.394531 -9.816406 C 6.628906 -10.261719 5.960938 -10.660156 5.730469 -10.207031 Z M 0.925781 -11.488281 C 1.15625 -11.929688 2.675781 -13.839844 3.003906 -12.882812 C 3.421875 -11.65625 1.5625 -10.617188 0.703125 -10.386719 C 0.621094 -10.367188 0.558594 -10.324219 0.515625 -10.269531 C 0.59375 -10.695312 0.726562 -11.105469 0.925781 -11.488281 Z M 0.925781 -11.488281 "/></g></g></g><g fill="#9ea8c6" fill-opacity="1"><g transform="translate(122.466951, 27.699197)"><g/></g></g><g fill="#9ea8c6" fill-opacity="1"><g transform="translate(127.196277, 27.699197)"><g><path d="M 10.019531 -15.261719 C 11.707031 -17.910156 12.933594 -22.058594 11.183594 -24.972656 C 9.585938 -27.644531 5.917969 -27.203125 3.785156 -25.46875 C 1.253906 -23.417969 0.0976562 -20.015625 0.488281 -16.816406 C 0.914062 -13.371094 2.90625 -10.632812 5.402344 -8.332031 C 6.984375 -6.875 9.335938 -5.3125 10.082031 -3.1875 C 10.605469 -1.679688 9.949219 -0.078125 8.351562 0.347656 C 7.773438 0.507812 7.140625 0.523438 6.589844 0.3125 C 5.542969 -0.078125 5.234375 -1.332031 6.28125 -1.929688 C 6.714844 -2.175781 6.324219 -2.851562 5.890625 -2.601562 C 4.992188 -2.085938 4.566406 -1.128906 4.992188 -0.132812 C 5.464844 0.976562 6.761719 1.332031 7.871094 1.226562 C 11.21875 0.886719 11.699219 -2.585938 9.976562 -4.929688 C 7.472656 -8.332031 3.507812 -10.199219 1.910156 -14.339844 C 0.472656 -18.058594 1.226562 -22.875 4.734375 -25.210938 C 7.105469 -26.792969 10.367188 -26.25 11.023438 -23.210938 C 11.59375 -20.601562 10.75 -17.855469 9.355469 -15.660156 C 9.078125 -15.234375 9.753906 -14.84375 10.019531 -15.261719 Z M 10.019531 -15.261719 "/></g></g></g><g fill="#9ea8c6" fill-opacity="1"><g transform="translate(139.266446, 27.699197)"><g><path d="M 5.792969 -9.835938 C 5.515625 -9.257812 5.046875 -9 4.523438 -8.910156 C 4.546875 -9.007812 4.566406 -9.097656 4.582031 -9.1875 C 4.816406 -10.429688 4.53125 -12.144531 3.445312 -12.945312 C 1.316406 -14.507812 -1.535156 -10.429688 0.738281 -9.050781 C 0.78125 -9.015625 0.835938 -8.988281 0.886719 -8.953125 C 0.683594 -7.453125 1.058594 -5.757812 2.28125 -5.980469 C 3.144531 -6.128906 3.835938 -7.132812 4.238281 -8.085938 C 5.179688 -8.136719 6.023438 -8.519531 6.46875 -9.433594 C 6.679688 -9.886719 6.015625 -10.289062 5.792969 -9.835938 Z M 3.039062 -7.613281 C 2.832031 -7.347656 2.273438 -6.726562 1.847656 -7.054688 C 1.632812 -7.214844 1.625 -7.878906 1.707031 -8.5625 C 2.230469 -8.359375 2.796875 -8.199219 3.375 -8.121094 C 3.277344 -7.949219 3.164062 -7.78125 3.039062 -7.613281 Z M 3.703125 -8.890625 C 3.402344 -8.917969 3.089844 -8.980469 2.796875 -9.0625 C 2.496094 -9.140625 2.160156 -9.230469 1.847656 -9.34375 C 1.980469 -9.933594 2.167969 -10.386719 2.328125 -10.324219 C 2.796875 -10.152344 3.003906 -10.910156 2.53125 -11.078125 C 1.867188 -11.316406 1.351562 -10.679688 1.074219 -9.78125 C 0.667969 -10.144531 0.523438 -10.660156 0.996094 -11.476562 C 1.402344 -12.207031 2.203125 -12.882812 3.152344 -12.160156 C 3.457031 -11.941406 3.632812 -11.371094 3.730469 -11.050781 C 3.945312 -10.339844 3.925781 -9.59375 3.703125 -8.890625 Z M 3.703125 -8.890625 "/></g></g></g><g fill="#9ea8c6" fill-opacity="1"><g transform="translate(145.474723, 27.699197)"><g><path d="M 4.121094 3.359375 C 4.414062 2.949219 3.738281 2.566406 3.445312 2.96875 C 3.589844 2.773438 2.613281 0.3125 2.523438 -0.0898438 C 2.308594 -0.949219 2.140625 -1.828125 1.988281 -2.710938 C 1.6875 -4.53125 1.484375 -6.378906 1.394531 -8.226562 C 1.339844 -9.148438 1.324219 -10.082031 1.332031 -11.015625 C 2.070312 -12.402344 2.65625 -13.894531 3.152344 -15.378906 C 3.757812 -17.191406 4.191406 -19.0625 4.441406 -20.972656 C 4.574219 -21.933594 4.683594 -22.917969 4.691406 -23.898438 C 4.699219 -24.359375 4.707031 -24.945312 4.21875 -25.195312 C 2.125 -26.269531 1.144531 -18.390625 1.011719 -17.402344 C 0.726562 -15.359375 0.578125 -13.308594 0.558594 -11.246094 C 0.496094 -11.132812 0.433594 -11.023438 0.382812 -10.910156 C 0.230469 -10.792969 0.160156 -10.6875 0.152344 -10.589844 C -0.117188 -10.695312 -0.488281 -10.492188 -0.375 -10.144531 C -0.167969 -9.539062 0.230469 -9.601562 0.558594 -9.871094 C 0.59375 -8.171875 0.703125 -6.476562 0.914062 -4.796875 C 1.191406 -2.53125 1.527344 -0.1875 2.308594 1.964844 C 2.523438 2.550781 3.296875 4.476562 4.121094 3.359375 Z M 2.070312 -19.144531 C 2.203125 -19.90625 2.355469 -20.671875 2.539062 -21.417969 C 2.71875 -22.101562 2.957031 -23.605469 3.519531 -24.039062 C 3.953125 -24.375 3.847656 -24.066406 3.910156 -23.664062 C 3.960938 -23.285156 3.855469 -22.707031 3.820312 -22.316406 C 3.738281 -21.453125 3.625 -20.59375 3.464844 -19.730469 C 3.171875 -18.105469 2.734375 -16.496094 2.183594 -14.941406 C 1.945312 -14.277344 1.671875 -13.617188 1.386719 -12.96875 C 1.484375 -15.039062 1.707031 -17.101562 2.070312 -19.144531 Z M 2.070312 -19.144531 "/></g></g></g><g fill="#9ea8c6" fill-opacity="1"><g transform="translate(149.70239, 27.699197)"><g><path d="M 6.699219 -9.976562 C 6.457031 -9.34375 6.164062 -8.527344 5.625 -8.085938 C 4.742188 -7.375 4.28125 -8.226562 4.113281 -8.988281 C 3.996094 -9.539062 3.933594 -10.144531 3.933594 -10.75 C 4.070312 -11.558594 4.140625 -12.25 4.183594 -12.625 C 4.230469 -13.078125 3.535156 -13.140625 3.421875 -12.730469 C 3.261719 -12.1875 3.136719 -11.414062 3.109375 -10.605469 C 2.773438 -8.777344 2.148438 -6.476562 1.136719 -6.671875 C -0.292969 -6.9375 0.335938 -11.140625 0.925781 -12.570312 C 1.101562 -12.589844 1.261719 -12.710938 1.242188 -12.945312 C 1.242188 -12.980469 1.242188 -13.015625 1.242188 -13.050781 C 1.234375 -13.183594 1.171875 -13.335938 1.046875 -13.386719 C 1.011719 -13.40625 0.984375 -13.414062 0.949219 -13.433594 C 0.746094 -13.519531 0.550781 -13.484375 0.417969 -13.289062 C -0.328125 -12.1875 -0.410156 -10.214844 -0.417969 -8.929688 C -0.425781 -7.898438 -0.320312 -6.226562 0.90625 -5.890625 C 2.125 -5.5625 2.894531 -6.832031 3.382812 -8.367188 C 3.527344 -7.988281 3.714844 -7.640625 3.972656 -7.390625 C 5.550781 -5.855469 7.019531 -8.609375 7.445312 -9.761719 C 7.621094 -10.234375 6.875 -10.4375 6.699219 -9.976562 Z M 6.699219 -9.976562 "/></g></g></g><g fill="#9ea8c6" fill-opacity="1"><g transform="translate(156.807714, 27.699197)"><g><path d="M 9.585938 -21.613281 C 7.390625 -21.746094 5.195312 -21.738281 3.011719 -21.613281 C 3.1875 -22.867188 3.375 -24.109375 3.570312 -25.355469 C 3.738281 -25.414062 3.882812 -25.585938 3.847656 -25.816406 C 3.800781 -26.054688 3.757812 -26.304688 3.722656 -26.554688 C 3.660156 -26.917969 3.03125 -26.925781 2.96875 -26.554688 C 2.710938 -24.890625 2.453125 -23.230469 2.230469 -21.570312 C -0.117188 -21.390625 -2.441406 -21.082031 -4.753906 -20.617188 C -5.160156 -20.539062 -5.089844 -19.988281 -4.753906 -19.863281 C -3.960938 -19.589844 -3.226562 -19.472656 -2.378906 -19.515625 C -1.9375 -19.535156 -1.890625 -20.15625 -2.238281 -20.273438 C -0.789062 -20.496094 0.65625 -20.664062 2.125 -20.777344 C 1.519531 -16.210938 1.128906 -11.621094 1.234375 -7.019531 C 1.269531 -5.480469 1.324219 -3.917969 1.535156 -2.398438 C 1.644531 -1.617188 1.769531 -0.214844 2.441406 0.320312 C 4.183594 1.6875 4.40625 -3.457031 4.378906 -4.15625 C 4.351562 -4.65625 3.582031 -4.65625 3.597656 -4.15625 C 3.625 -3.617188 3.703125 -0.417969 2.699219 -0.78125 C 2.433594 -0.878906 2.273438 -2.675781 2.257812 -2.84375 C 2.203125 -3.304688 2.167969 -3.765625 2.140625 -4.230469 C 1.972656 -6.671875 1.953125 -9.125 2.0625 -11.566406 C 2.183594 -14.667969 2.503906 -17.757812 2.90625 -20.832031 C 4.867188 -20.949219 6.839844 -20.957031 8.8125 -20.867188 C 8.855469 -20.679688 9.035156 -20.511719 9.285156 -20.582031 C 9.601562 -20.664062 9.65625 -20.691406 9.859375 -20.949219 C 10.074219 -21.214844 9.941406 -21.585938 9.585938 -21.613281 Z M 9.585938 -21.613281 "/></g></g></g><g fill="#9ea8c6" fill-opacity="1"><g transform="translate(160.928801, 27.699197)"><g><path d="M 3.777344 -9.992188 C 3.375 -9.230469 2.929688 -8.484375 2.417969 -7.789062 C 2.160156 -7.4375 1.6875 -6.707031 1.234375 -6.574219 C 0.1875 -6.253906 0.472656 -8.21875 0.53125 -8.875 C 0.621094 -9.78125 1.339844 -11.878906 0.480469 -12.625 C -0.238281 -13.253906 -1.066406 -12.304688 -1.359375 -11.699219 C -1.582031 -11.246094 -0.90625 -10.855469 -0.691406 -11.308594 C -0.0546875 -11.867188 0.1875 -11.824219 0.0273438 -11.183594 C 0.0078125 -10.953125 -0.0195312 -10.722656 -0.0429688 -10.492188 C -0.0976562 -10.03125 -0.167969 -9.566406 -0.222656 -9.105469 C -0.3125 -8.332031 -0.417969 -7.4375 -0.214844 -6.652344 C -0.0351562 -6.003906 0.425781 -5.550781 1.136719 -5.695312 C 2.675781 -5.996094 3.792969 -8.359375 4.449219 -9.601562 C 4.683594 -10.039062 4.007812 -10.4375 3.777344 -9.992188 Z M -0.558594 -14.507812 C -0.667969 -14.460938 -0.773438 -14.417969 -0.878906 -14.363281 C -1.074219 -14.285156 -1.121094 -14 -1.023438 -13.832031 C -0.90625 -13.636719 -0.683594 -13.609375 -0.488281 -13.699219 C -0.382812 -13.742188 -0.277344 -13.789062 -0.167969 -13.839844 C 0.0273438 -13.921875 0.0703125 -14.203125 -0.0273438 -14.375 C -0.140625 -14.570312 -0.363281 -14.597656 -0.558594 -14.507812 Z M -0.558594 -14.507812 "/></g></g></g><g fill="#9ea8c6" fill-opacity="1"><g transform="translate(165.067652, 27.699197)"><g><path d="M 5.792969 -9.835938 C 5.515625 -9.257812 5.046875 -9 4.523438 -8.910156 C 4.546875 -9.007812 4.566406 -9.097656 4.582031 -9.1875 C 4.816406 -10.429688 4.53125 -12.144531 3.445312 -12.945312 C 1.316406 -14.507812 -1.535156 -10.429688 0.738281 -9.050781 C 0.78125 -9.015625 0.835938 -8.988281 0.886719 -8.953125 C 0.683594 -7.453125 1.058594 -5.757812 2.28125 -5.980469 C 3.144531 -6.128906 3.835938 -7.132812 4.238281 -8.085938 C 5.179688 -8.136719 6.023438 -8.519531 6.46875 -9.433594 C 6.679688 -9.886719 6.015625 -10.289062 5.792969 -9.835938 Z M 3.039062 -7.613281 C 2.832031 -7.347656 2.273438 -6.726562 1.847656 -7.054688 C 1.632812 -7.214844 1.625 -7.878906 1.707031 -8.5625 C 2.230469 -8.359375 2.796875 -8.199219 3.375 -8.121094 C 3.277344 -7.949219 3.164062 -7.78125 3.039062 -7.613281 Z M 3.703125 -8.890625 C 3.402344 -8.917969 3.089844 -8.980469 2.796875 -9.0625 C 2.496094 -9.140625 2.160156 -9.230469 1.847656 -9.34375 C 1.980469 -9.933594 2.167969 -10.386719 2.328125 -10.324219 C 2.796875 -10.152344 3.003906 -10.910156 2.53125 -11.078125 C 1.867188 -11.316406 1.351562 -10.679688 1.074219 -9.78125 C 0.667969 -10.144531 0.523438 -10.660156 0.996094 -11.476562 C 1.402344 -12.207031 2.203125 -12.882812 3.152344 -12.160156 C 3.457031 -11.941406 3.632812 -11.371094 3.730469 -11.050781 C 3.945312 -10.339844 3.925781 -9.59375 3.703125 -8.890625 Z M 3.703125 -8.890625 "/></g></g></g><g fill="#9ea8c6" fill-opacity="1"><g transform="translate(171.275929, 27.699197)"><g><path d="M 7.808594 -10.003906 C 7.390625 -9.480469 6.617188 -8.351562 5.933594 -8.171875 C 4.414062 -7.78125 4.371094 -11.007812 4.140625 -11.789062 C 4.050781 -12.074219 3.695312 -12.171875 3.492188 -11.964844 C 2.425781 -10.898438 1.882812 -9.523438 0.976562 -8.351562 C 0.773438 -8.09375 0.667969 -7.753906 0.472656 -7.933594 C 0.375 -8.023438 0.542969 -9.230469 0.558594 -9.355469 C 0.613281 -10.054688 0.710938 -10.742188 0.828125 -11.433594 C 1.003906 -11.441406 1.164062 -11.566406 1.136719 -11.796875 C 1.109375 -12.082031 1.074219 -12.355469 1.046875 -12.640625 C 1.003906 -13.042969 0.375 -13.210938 0.277344 -12.746094 C 0.0078125 -11.390625 -0.1875 -10.03125 -0.277344 -8.644531 C -0.3125 -8.128906 -0.460938 -7.117188 0.265625 -6.945312 C 0.863281 -6.804688 1.339844 -7.535156 1.625 -7.914062 C 2.335938 -8.847656 2.824219 -9.914062 3.535156 -10.839844 C 3.738281 -9.488281 3.820312 -7.605469 5.214844 -7.292969 C 6.476562 -7.007812 7.683594 -8.609375 8.359375 -9.453125 C 8.671875 -9.84375 8.128906 -10.394531 7.808594 -10.003906 Z M 7.808594 -10.003906 "/></g></g></g><g clip-path="url(#0690bf3ed3)"><g fill="#9ea8c6" fill-opacity="1"><g transform="translate(179.33159, 27.699197)"><g><path d="M 6.078125 -9.453125 C 4.859375 -9.238281 3.5 -8.8125 2.273438 -8.15625 C 2.085938 -8.476562 1.882812 -8.785156 1.660156 -9.070312 C 0.628906 -10.402344 -0.886719 -11.726562 -0.941406 -13.546875 C -0.976562 -14.746094 0.125 -17.179688 1.660156 -15.875 C 2.636719 -15.039062 2.203125 -13.484375 1.929688 -12.4375 C 1.792969 -11.949219 2.550781 -11.742188 2.683594 -12.222656 C 3.101562 -13.839844 3.332031 -17.117188 0.765625 -17.019531 C -1.4375 -16.941406 -2.042969 -13.9375 -1.484375 -12.277344 C -1.011719 -10.855469 0.667969 -9.355469 1.644531 -7.789062 C 0.59375 -7.125 -0.3125 -6.28125 -0.871094 -5.257812 C -1.945312 -3.296875 -0.0976562 -1.679688 1.730469 -2.929688 C 3.382812 -4.058594 3.332031 -5.835938 2.648438 -7.417969 C 3.777344 -8.046875 5 -8.476562 6.28125 -8.695312 C 6.777344 -8.777344 6.566406 -9.53125 6.078125 -9.453125 Z M 1.855469 -4.132812 C 1.609375 -3.785156 1.109375 -3.296875 0.628906 -3.261719 C -1.011719 -3.136719 -0.347656 -4.628906 0.0078125 -5.1875 C 0.445312 -5.871094 1.164062 -6.449219 1.820312 -6.902344 C 1.902344 -6.957031 1.972656 -7 2.050781 -7.054688 C 2.496094 -6.09375 2.566406 -5.117188 1.855469 -4.132812 Z M 1.855469 -4.132812 "/></g></g></g></g><g clip-path="url(#d15b3ee8fc)"><path fill="#9ea8c6" d="M 7.53125 17.292969 C 7.484375 17.6875 7.460938 18.085938 7.460938 18.488281 C 7.460938 18.894531 7.484375 19.292969 7.53125 19.683594 L 14.398438 19.683594 L 14.398438 25.367188 C 12.648438 24.578125 11.253906 23.140625 10.523438 21.355469 L 8.207031 22.296875 C 9.320312 25.019531 11.589844 27.140625 14.398438 28.046875 C 15.15625 28.292969 15.957031 28.449219 16.78125 28.507812 L 16.78125 17.292969 L 10.054688 17.292969 C 10.457031 14.75 12.128906 12.632812 14.398438 11.609375 L 14.398438 14.90625 L 16.78125 14.90625 L 16.78125 8.472656 C 15.957031 8.527344 15.15625 8.683594 14.398438 8.929688 C 10.738281 10.113281 7.996094 13.355469 7.53125 17.292969 Z M 7.53125 17.292969 " fill-opacity="1" fill-rule="nonzero"/></g><g clip-path="url(#8ad4404dc5)"><path fill="#9ea8c6" d="M 25.921875 13.09375 L 23.875 14.535156 C 24.171875 15.015625 24.414062 15.535156 24.597656 16.078125 C 24.671875 16.300781 24.738281 16.527344 24.789062 16.753906 C 24.921875 17.3125 24.988281 17.890625 24.988281 18.488281 C 24.988281 19.144531 24.90625 19.78125 24.75 20.390625 L 24.121094 18.789062 L 22.753906 15.316406 L 21.589844 18.859375 L 20.679688 21.613281 L 20.679688 8.972656 C 19.921875 8.714844 19.125 8.546875 18.300781 8.480469 L 18.300781 28.496094 C 18.339844 28.496094 18.378906 28.492188 18.414062 28.488281 C 19.199219 28.414062 19.960938 28.25 20.679688 28.003906 C 20.835938 27.953125 20.988281 27.898438 21.136719 27.835938 L 22.320312 24.25 L 22.953125 22.332031 L 23.308594 23.238281 L 24.324219 25.816406 C 24.988281 25.1875 25.570312 24.472656 26.046875 23.683594 C 26.960938 22.167969 27.488281 20.390625 27.488281 18.488281 C 27.488281 16.503906 26.914062 14.652344 25.921875 13.09375 Z M 25.921875 13.09375 " fill-opacity="1" fill-rule="nonzero"/></g><g fill="#ffffff" fill-opacity="1"><g transform="translate(94.974563, 14.190165)"><g><path d="M 0.542969 -0.828125 C 0.636719 -0.972656 0.703125 -1.199219 0.609375 -1.359375 C 0.519531 -1.503906 0.320312 -1.480469 0.207031 -1.386719 C 0.0664062 -1.273438 0.00390625 -1.089844 0.0273438 -0.914062 C 0.0507812 -0.726562 0.15625 -0.578125 0.292969 -0.453125 C 0.378906 -0.375 0.507812 -0.289062 0.546875 -0.171875 C 0.578125 -0.0898438 0.539062 -0.00390625 0.453125 0.0195312 C 0.421875 0.0273438 0.386719 0.0273438 0.359375 0.015625 C 0.300781 -0.00390625 0.285156 -0.0742188 0.339844 -0.105469 C 0.363281 -0.117188 0.34375 -0.15625 0.320312 -0.140625 C 0.269531 -0.113281 0.25 -0.0625 0.269531 -0.0078125 C 0.296875 0.0546875 0.367188 0.0742188 0.429688 0.0664062 C 0.609375 0.046875 0.636719 -0.140625 0.542969 -0.269531 C 0.40625 -0.453125 0.191406 -0.554688 0.105469 -0.78125 C 0.0273438 -0.980469 0.0664062 -1.242188 0.257812 -1.371094 C 0.386719 -1.457031 0.5625 -1.425781 0.597656 -1.261719 C 0.628906 -1.121094 0.585938 -0.972656 0.507812 -0.851562 C 0.492188 -0.828125 0.53125 -0.808594 0.542969 -0.828125 Z M 0.542969 -0.828125 "/></g></g></g><g fill="#ffffff" fill-opacity="1"><g transform="translate(95.446854, 14.190165)"><g><path d="M 0.320312 -0.136719 C 0.378906 -0.300781 0.402344 -0.472656 0.453125 -0.640625 C 0.492188 -0.433594 0.492188 -0.226562 0.539062 -0.0195312 C 0.550781 0.0273438 0.5625 0.160156 0.632812 0.167969 C 0.703125 0.175781 0.742188 0.0664062 0.757812 0.0195312 C 0.824219 -0.199219 0.832031 -0.445312 0.839844 -0.667969 C 0.851562 -0.921875 0.839844 -1.171875 0.8125 -1.421875 C 0.808594 -1.445312 0.765625 -1.445312 0.769531 -1.421875 C 0.816406 -1.015625 0.820312 -0.597656 0.757812 -0.191406 C 0.75 -0.144531 0.742188 -0.0976562 0.730469 -0.0546875 C 0.722656 -0.015625 0.710938 0.0585938 0.683594 0.0859375 C 0.609375 0.152344 0.59375 0.0390625 0.585938 -0.0078125 C 0.574219 -0.0546875 0.566406 -0.101562 0.558594 -0.148438 C 0.53125 -0.339844 0.523438 -0.535156 0.480469 -0.726562 C 0.476562 -0.75 0.445312 -0.746094 0.441406 -0.726562 C 0.386719 -0.589844 0.363281 -0.449219 0.328125 -0.308594 C 0.308594 -0.238281 0.289062 -0.167969 0.261719 -0.101562 C 0.253906 -0.0820312 0.246094 -0.0625 0.234375 -0.0429688 C 0.222656 -0.0117188 0.203125 0.0273438 0.179688 0.0234375 C 0.160156 0.0195312 0.152344 -0.015625 0.144531 -0.046875 C 0.136719 -0.0742188 0.132812 -0.101562 0.132812 -0.132812 C 0.117188 -0.285156 0.125 -0.441406 0.144531 -0.59375 C 0.152344 -0.683594 0.167969 -0.769531 0.183594 -0.851562 C 0.195312 -0.914062 0.203125 -1 0.246094 -1.054688 C 0.246094 -1.050781 0.25 -1.046875 0.25 -1.042969 C 0.25 -1.015625 0.292969 -1.015625 0.292969 -1.042969 C 0.292969 -1.070312 0.285156 -1.085938 0.269531 -1.105469 C 0.257812 -1.113281 0.246094 -1.113281 0.238281 -1.105469 C 0.175781 -1.054688 0.164062 -0.964844 0.148438 -0.890625 C 0.125 -0.789062 0.109375 -0.6875 0.0976562 -0.582031 C 0.0898438 -0.476562 0.0820312 -0.371094 0.0820312 -0.261719 C 0.0859375 -0.175781 0.0820312 -0.0625 0.121094 0.0195312 C 0.199219 0.175781 0.300781 -0.0742188 0.320312 -0.136719 Z M 0.320312 -0.136719 "/></g></g></g></svg>